ISO-10303-21;
HEADER;
/* Generated by software containing ST-Developer
 * from STEP Tools, Inc. (www.steptools.com) 
 */

FILE_DESCRIPTION(
/* description */ (''),
/* implementation_level */ '2;1');

FILE_NAME(
/* name */ '20x20x245ExtrudedAluminum.stp',
/* time_stamp */ '2026-03-26T20:56:18-04:00',
/* author */ ('samue'),
/* organization */ (''),
/* preprocessor_version */ 'ST-DEVELOPER v20.1',
/* originating_system */ 'Autodesk Inventor 2026',
/* authorisation */ '');

FILE_SCHEMA (('AUTOMOTIVE_DESIGN { 1 0 10303 214 3 1 1 }'));
ENDSEC;

DATA;
#10=MECHANICAL_DESIGN_GEOMETRIC_PRESENTATION_REPRESENTATION('',(#13),#1691);
#11=SHAPE_REPRESENTATION_RELATIONSHIP('SRR','None',#1698,#12);
#12=ADVANCED_BREP_SHAPE_REPRESENTATION('',(#14),#1690);
#13=STYLED_ITEM('',(#1707),#14);
#14=MANIFOLD_SOLID_BREP('Solid2',#1046);
#15=CYLINDRICAL_SURFACE('',#1075,0.5);
#16=CYLINDRICAL_SURFACE('',#1088,0.5);
#17=CYLINDRICAL_SURFACE('',#1101,2.00000002980232);
#18=CYLINDRICAL_SURFACE('',#1103,0.5);
#19=CYLINDRICAL_SURFACE('',#1116,0.5);
#20=FACE_BOUND('',#74,.T.);
#21=FACE_BOUND('',#125,.T.);
#22=FACE_OUTER_BOUND('',#73,.T.);
#23=FACE_OUTER_BOUND('',#75,.T.);
#24=FACE_OUTER_BOUND('',#76,.T.);
#25=FACE_OUTER_BOUND('',#77,.T.);
#26=FACE_OUTER_BOUND('',#78,.T.);
#27=FACE_OUTER_BOUND('',#79,.T.);
#28=FACE_OUTER_BOUND('',#80,.T.);
#29=FACE_OUTER_BOUND('',#81,.T.);
#30=FACE_OUTER_BOUND('',#82,.T.);
#31=FACE_OUTER_BOUND('',#83,.T.);
#32=FACE_OUTER_BOUND('',#84,.T.);
#33=FACE_OUTER_BOUND('',#85,.T.);
#34=FACE_OUTER_BOUND('',#86,.T.);
#35=FACE_OUTER_BOUND('',#87,.T.);
#36=FACE_OUTER_BOUND('',#88,.T.);
#37=FACE_OUTER_BOUND('',#89,.T.);
#38=FACE_OUTER_BOUND('',#90,.T.);
#39=FACE_OUTER_BOUND('',#91,.T.);
#40=FACE_OUTER_BOUND('',#92,.T.);
#41=FACE_OUTER_BOUND('',#93,.T.);
#42=FACE_OUTER_BOUND('',#94,.T.);
#43=FACE_OUTER_BOUND('',#95,.T.);
#44=FACE_OUTER_BOUND('',#96,.T.);
#45=FACE_OUTER_BOUND('',#97,.T.);
#46=FACE_OUTER_BOUND('',#98,.T.);
#47=FACE_OUTER_BOUND('',#99,.T.);
#48=FACE_OUTER_BOUND('',#100,.T.);
#49=FACE_OUTER_BOUND('',#101,.T.);
#50=FACE_OUTER_BOUND('',#102,.T.);
#51=FACE_OUTER_BOUND('',#103,.T.);
#52=FACE_OUTER_BOUND('',#104,.T.);
#53=FACE_OUTER_BOUND('',#105,.T.);
#54=FACE_OUTER_BOUND('',#106,.T.);
#55=FACE_OUTER_BOUND('',#107,.T.);
#56=FACE_OUTER_BOUND('',#108,.T.);
#57=FACE_OUTER_BOUND('',#109,.T.);
#58=FACE_OUTER_BOUND('',#110,.T.);
#59=FACE_OUTER_BOUND('',#111,.T.);
#60=FACE_OUTER_BOUND('',#112,.T.);
#61=FACE_OUTER_BOUND('',#113,.T.);
#62=FACE_OUTER_BOUND('',#114,.T.);
#63=FACE_OUTER_BOUND('',#115,.T.);
#64=FACE_OUTER_BOUND('',#116,.T.);
#65=FACE_OUTER_BOUND('',#117,.T.);
#66=FACE_OUTER_BOUND('',#118,.T.);
#67=FACE_OUTER_BOUND('',#119,.T.);
#68=FACE_OUTER_BOUND('',#120,.T.);
#69=FACE_OUTER_BOUND('',#121,.T.);
#70=FACE_OUTER_BOUND('',#122,.T.);
#71=FACE_OUTER_BOUND('',#123,.T.);
#72=FACE_OUTER_BOUND('',#124,.T.);
#73=EDGE_LOOP('',(#655,#656,#657,#658,#659,#660,#661,#662,#663,#664,#665,
#666,#667,#668,#669,#670,#671,#672,#673,#674,#675,#676,#677,#678,#679,#680,
#681,#682,#683,#684,#685,#686,#687,#688,#689,#690,#691,#692,#693,#694,#695,
#696,#697,#698,#699,#700,#701,#702));
#74=EDGE_LOOP('',(#703));
#75=EDGE_LOOP('',(#704,#705,#706,#707));
#76=EDGE_LOOP('',(#708,#709,#710,#711));
#77=EDGE_LOOP('',(#712,#713,#714,#715));
#78=EDGE_LOOP('',(#716,#717,#718,#719));
#79=EDGE_LOOP('',(#720,#721,#722,#723));
#80=EDGE_LOOP('',(#724,#725,#726,#727));
#81=EDGE_LOOP('',(#728,#729,#730,#731));
#82=EDGE_LOOP('',(#732,#733,#734,#735));
#83=EDGE_LOOP('',(#736,#737,#738,#739));
#84=EDGE_LOOP('',(#740,#741,#742,#743));
#85=EDGE_LOOP('',(#744,#745,#746,#747));
#86=EDGE_LOOP('',(#748,#749,#750,#751));
#87=EDGE_LOOP('',(#752,#753,#754,#755));
#88=EDGE_LOOP('',(#756,#757,#758,#759));
#89=EDGE_LOOP('',(#760,#761,#762,#763));
#90=EDGE_LOOP('',(#764,#765,#766,#767));
#91=EDGE_LOOP('',(#768,#769,#770,#771));
#92=EDGE_LOOP('',(#772,#773,#774,#775));
#93=EDGE_LOOP('',(#776,#777,#778,#779));
#94=EDGE_LOOP('',(#780,#781,#782,#783));
#95=EDGE_LOOP('',(#784,#785,#786,#787));
#96=EDGE_LOOP('',(#788,#789,#790,#791));
#97=EDGE_LOOP('',(#792,#793,#794,#795));
#98=EDGE_LOOP('',(#796,#797,#798,#799));
#99=EDGE_LOOP('',(#800,#801,#802,#803));
#100=EDGE_LOOP('',(#804,#805,#806,#807));
#101=EDGE_LOOP('',(#808,#809,#810,#811));
#102=EDGE_LOOP('',(#812,#813,#814,#815));
#103=EDGE_LOOP('',(#816,#817,#818,#819));
#104=EDGE_LOOP('',(#820,#821,#822,#823));
#105=EDGE_LOOP('',(#824,#825,#826,#827));
#106=EDGE_LOOP('',(#828,#829,#830,#831));
#107=EDGE_LOOP('',(#832,#833,#834,#835));
#108=EDGE_LOOP('',(#836,#837,#838,#839));
#109=EDGE_LOOP('',(#840,#841,#842,#843));
#110=EDGE_LOOP('',(#844,#845,#846,#847));
#111=EDGE_LOOP('',(#848,#849,#850,#851));
#112=EDGE_LOOP('',(#852,#853,#854,#855));
#113=EDGE_LOOP('',(#856,#857,#858,#859));
#114=EDGE_LOOP('',(#860,#861,#862,#863));
#115=EDGE_LOOP('',(#864,#865,#866,#867));
#116=EDGE_LOOP('',(#868,#869,#870,#871));
#117=EDGE_LOOP('',(#872,#873,#874,#875));
#118=EDGE_LOOP('',(#876,#877,#878,#879));
#119=EDGE_LOOP('',(#880,#881,#882,#883));
#120=EDGE_LOOP('',(#884,#885,#886,#887));
#121=EDGE_LOOP('',(#888,#889,#890,#891));
#122=EDGE_LOOP('',(#892,#893,#894,#895));
#123=EDGE_LOOP('',(#896,#897,#898,#899));
#124=EDGE_LOOP('',(#900,#901,#902,#903,#904,#905,#906,#907,#908,#909,#910,
#911,#912,#913,#914,#915,#916,#917,#918,#919,#920,#921,#922,#923,#924,#925,
#926,#927,#928,#929,#930,#931,#932,#933,#934,#935,#936,#937,#938,#939,#940,
#941,#942,#943,#944,#945,#946,#947));
#125=EDGE_LOOP('',(#948));
#126=LINE('',#1397,#263);
#127=LINE('',#1399,#264);
#128=LINE('',#1401,#265);
#129=LINE('',#1403,#266);
#130=LINE('',#1405,#267);
#131=LINE('',#1407,#268);
#132=LINE('',#1409,#269);
#133=LINE('',#1411,#270);
#134=LINE('',#1413,#271);
#135=LINE('',#1415,#272);
#136=LINE('',#1417,#273);
#137=LINE('',#1421,#274);
#138=LINE('',#1423,#275);
#139=LINE('',#1425,#276);
#140=LINE('',#1427,#277);
#141=LINE('',#1429,#278);
#142=LINE('',#1431,#279);
#143=LINE('',#1433,#280);
#144=LINE('',#1435,#281);
#145=LINE('',#1437,#282);
#146=LINE('',#1439,#283);
#147=LINE('',#1441,#284);
#148=LINE('',#1445,#285);
#149=LINE('',#1447,#286);
#150=LINE('',#1449,#287);
#151=LINE('',#1451,#288);
#152=LINE('',#1453,#289);
#153=LINE('',#1455,#290);
#154=LINE('',#1457,#291);
#155=LINE('',#1459,#292);
#156=LINE('',#1461,#293);
#157=LINE('',#1463,#294);
#158=LINE('',#1465,#295);
#159=LINE('',#1469,#296);
#160=LINE('',#1471,#297);
#161=LINE('',#1473,#298);
#162=LINE('',#1475,#299);
#163=LINE('',#1477,#300);
#164=LINE('',#1479,#301);
#165=LINE('',#1481,#302);
#166=LINE('',#1483,#303);
#167=LINE('',#1485,#304);
#168=LINE('',#1487,#305);
#169=LINE('',#1488,#306);
#170=LINE('',#1493,#307);
#171=LINE('',#1496,#308);
#172=LINE('',#1499,#309);
#173=LINE('',#1500,#310);
#174=LINE('',#1503,#311);
#175=LINE('',#1504,#312);
#176=LINE('',#1507,#313);
#177=LINE('',#1508,#314);
#178=LINE('',#1511,#315);
#179=LINE('',#1512,#316);
#180=LINE('',#1515,#317);
#181=LINE('',#1516,#318);
#182=LINE('',#1519,#319);
#183=LINE('',#1520,#320);
#184=LINE('',#1523,#321);
#185=LINE('',#1524,#322);
#186=LINE('',#1527,#323);
#187=LINE('',#1528,#324);
#188=LINE('',#1531,#325);
#189=LINE('',#1532,#326);
#190=LINE('',#1535,#327);
#191=LINE('',#1536,#328);
#192=LINE('',#1539,#329);
#193=LINE('',#1540,#330);
#194=LINE('',#1543,#331);
#195=LINE('',#1547,#332);
#196=LINE('',#1548,#333);
#197=LINE('',#1551,#334);
#198=LINE('',#1552,#335);
#199=LINE('',#1555,#336);
#200=LINE('',#1556,#337);
#201=LINE('',#1559,#338);
#202=LINE('',#1560,#339);
#203=LINE('',#1563,#340);
#204=LINE('',#1564,#341);
#205=LINE('',#1567,#342);
#206=LINE('',#1568,#343);
#207=LINE('',#1571,#344);
#208=LINE('',#1572,#345);
#209=LINE('',#1575,#346);
#210=LINE('',#1576,#347);
#211=LINE('',#1579,#348);
#212=LINE('',#1580,#349);
#213=LINE('',#1583,#350);
#214=LINE('',#1584,#351);
#215=LINE('',#1587,#352);
#216=LINE('',#1588,#353);
#217=LINE('',#1591,#354);
#218=LINE('',#1595,#355);
#219=LINE('',#1599,#356);
#220=LINE('',#1600,#357);
#221=LINE('',#1603,#358);
#222=LINE('',#1604,#359);
#223=LINE('',#1607,#360);
#224=LINE('',#1608,#361);
#225=LINE('',#1611,#362);
#226=LINE('',#1612,#363);
#227=LINE('',#1615,#364);
#228=LINE('',#1616,#365);
#229=LINE('',#1619,#366);
#230=LINE('',#1620,#367);
#231=LINE('',#1623,#368);
#232=LINE('',#1624,#369);
#233=LINE('',#1627,#370);
#234=LINE('',#1628,#371);
#235=LINE('',#1631,#372);
#236=LINE('',#1632,#373);
#237=LINE('',#1635,#374);
#238=LINE('',#1636,#375);
#239=LINE('',#1639,#376);
#240=LINE('',#1640,#377);
#241=LINE('',#1643,#378);
#242=LINE('',#1647,#379);
#243=LINE('',#1648,#380);
#244=LINE('',#1651,#381);
#245=LINE('',#1652,#382);
#246=LINE('',#1655,#383);
#247=LINE('',#1656,#384);
#248=LINE('',#1659,#385);
#249=LINE('',#1660,#386);
#250=LINE('',#1663,#387);
#251=LINE('',#1664,#388);
#252=LINE('',#1667,#389);
#253=LINE('',#1668,#390);
#254=LINE('',#1671,#391);
#255=LINE('',#1672,#392);
#256=LINE('',#1675,#393);
#257=LINE('',#1676,#394);
#258=LINE('',#1679,#395);
#259=LINE('',#1680,#396);
#260=LINE('',#1683,#397);
#261=LINE('',#1684,#398);
#262=LINE('',#1686,#399);
#263=VECTOR('',#1136,10.);
#264=VECTOR('',#1137,10.);
#265=VECTOR('',#1138,10.);
#266=VECTOR('',#1139,10.);
#267=VECTOR('',#1140,10.);
#268=VECTOR('',#1141,10.);
#269=VECTOR('',#1142,10.);
#270=VECTOR('',#1143,10.);
#271=VECTOR('',#1144,10.);
#272=VECTOR('',#1145,10.);
#273=VECTOR('',#1146,10.);
#274=VECTOR('',#1149,10.);
#275=VECTOR('',#1150,10.);
#276=VECTOR('',#1151,10.);
#277=VECTOR('',#1152,10.);
#278=VECTOR('',#1153,10.);
#279=VECTOR('',#1154,10.);
#280=VECTOR('',#1155,10.);
#281=VECTOR('',#1156,10.);
#282=VECTOR('',#1157,10.);
#283=VECTOR('',#1158,10.);
#284=VECTOR('',#1159,10.);
#285=VECTOR('',#1162,10.);
#286=VECTOR('',#1163,10.);
#287=VECTOR('',#1164,10.);
#288=VECTOR('',#1165,10.);
#289=VECTOR('',#1166,10.);
#290=VECTOR('',#1167,10.);
#291=VECTOR('',#1168,10.);
#292=VECTOR('',#1169,10.);
#293=VECTOR('',#1170,10.);
#294=VECTOR('',#1171,10.);
#295=VECTOR('',#1172,10.);
#296=VECTOR('',#1175,10.);
#297=VECTOR('',#1176,10.);
#298=VECTOR('',#1177,10.);
#299=VECTOR('',#1178,10.);
#300=VECTOR('',#1179,10.);
#301=VECTOR('',#1180,10.);
#302=VECTOR('',#1181,10.);
#303=VECTOR('',#1182,10.);
#304=VECTOR('',#1183,10.);
#305=VECTOR('',#1184,10.);
#306=VECTOR('',#1185,10.);
#307=VECTOR('',#1190,10.);
#308=VECTOR('',#1193,10.);
#309=VECTOR('',#1196,10.);
#310=VECTOR('',#1197,10.);
#311=VECTOR('',#1200,10.);
#312=VECTOR('',#1201,10.);
#313=VECTOR('',#1204,10.);
#314=VECTOR('',#1205,10.);
#315=VECTOR('',#1208,10.);
#316=VECTOR('',#1209,10.);
#317=VECTOR('',#1212,10.);
#318=VECTOR('',#1213,10.);
#319=VECTOR('',#1216,10.);
#320=VECTOR('',#1217,10.);
#321=VECTOR('',#1220,10.);
#322=VECTOR('',#1221,10.);
#323=VECTOR('',#1224,10.);
#324=VECTOR('',#1225,10.);
#325=VECTOR('',#1228,10.);
#326=VECTOR('',#1229,10.);
#327=VECTOR('',#1232,10.);
#328=VECTOR('',#1233,10.);
#329=VECTOR('',#1236,10.);
#330=VECTOR('',#1237,10.);
#331=VECTOR('',#1240,10.);
#332=VECTOR('',#1245,10.);
#333=VECTOR('',#1246,10.);
#334=VECTOR('',#1249,10.);
#335=VECTOR('',#1250,10.);
#336=VECTOR('',#1253,10.);
#337=VECTOR('',#1254,10.);
#338=VECTOR('',#1257,10.);
#339=VECTOR('',#1258,10.);
#340=VECTOR('',#1261,10.);
#341=VECTOR('',#1262,10.);
#342=VECTOR('',#1265,10.);
#343=VECTOR('',#1266,10.);
#344=VECTOR('',#1269,10.);
#345=VECTOR('',#1270,10.);
#346=VECTOR('',#1273,10.);
#347=VECTOR('',#1274,10.);
#348=VECTOR('',#1277,10.);
#349=VECTOR('',#1278,10.);
#350=VECTOR('',#1281,10.);
#351=VECTOR('',#1282,10.);
#352=VECTOR('',#1285,10.);
#353=VECTOR('',#1286,10.);
#354=VECTOR('',#1289,2.00000002980232);
#355=VECTOR('',#1294,10.);
#356=VECTOR('',#1299,10.);
#357=VECTOR('',#1300,10.);
#358=VECTOR('',#1303,10.);
#359=VECTOR('',#1304,10.);
#360=VECTOR('',#1307,10.);
#361=VECTOR('',#1308,10.);
#362=VECTOR('',#1311,10.);
#363=VECTOR('',#1312,10.);
#364=VECTOR('',#1315,10.);
#365=VECTOR('',#1316,10.);
#366=VECTOR('',#1319,10.);
#367=VECTOR('',#1320,10.);
#368=VECTOR('',#1323,10.);
#369=VECTOR('',#1324,10.);
#370=VECTOR('',#1327,10.);
#371=VECTOR('',#1328,10.);
#372=VECTOR('',#1331,10.);
#373=VECTOR('',#1332,10.);
#374=VECTOR('',#1335,10.);
#375=VECTOR('',#1336,10.);
#376=VECTOR('',#1339,10.);
#377=VECTOR('',#1340,10.);
#378=VECTOR('',#1343,10.);
#379=VECTOR('',#1348,10.);
#380=VECTOR('',#1349,10.);
#381=VECTOR('',#1352,10.);
#382=VECTOR('',#1353,10.);
#383=VECTOR('',#1356,10.);
#384=VECTOR('',#1357,10.);
#385=VECTOR('',#1360,10.);
#386=VECTOR('',#1361,10.);
#387=VECTOR('',#1364,10.);
#388=VECTOR('',#1365,10.);
#389=VECTOR('',#1368,10.);
#390=VECTOR('',#1369,10.);
#391=VECTOR('',#1372,10.);
#392=VECTOR('',#1373,10.);
#393=VECTOR('',#1376,10.);
#394=VECTOR('',#1377,10.);
#395=VECTOR('',#1380,10.);
#396=VECTOR('',#1381,10.);
#397=VECTOR('',#1384,10.);
#398=VECTOR('',#1385,10.);
#399=VECTOR('',#1388,10.);
#400=CIRCLE('',#1070,0.5);
#401=CIRCLE('',#1071,0.5);
#402=CIRCLE('',#1072,0.5);
#403=CIRCLE('',#1073,0.5);
#404=CIRCLE('',#1074,2.00000002980232);
#405=CIRCLE('',#1076,0.5);
#406=CIRCLE('',#1089,0.5);
#407=CIRCLE('',#1102,2.00000002980232);
#408=CIRCLE('',#1104,0.5);
#409=CIRCLE('',#1117,0.5);
#410=VERTEX_POINT('',#1393);
#411=VERTEX_POINT('',#1394);
#412=VERTEX_POINT('',#1396);
#413=VERTEX_POINT('',#1398);
#414=VERTEX_POINT('',#1400);
#415=VERTEX_POINT('',#1402);
#416=VERTEX_POINT('',#1404);
#417=VERTEX_POINT('',#1406);
#418=VERTEX_POINT('',#1408);
#419=VERTEX_POINT('',#1410);
#420=VERTEX_POINT('',#1412);
#421=VERTEX_POINT('',#1414);
#422=VERTEX_POINT('',#1416);
#423=VERTEX_POINT('',#1418);
#424=VERTEX_POINT('',#1420);
#425=VERTEX_POINT('',#1422);
#426=VERTEX_POINT('',#1424);
#427=VERTEX_POINT('',#1426);
#428=VERTEX_POINT('',#1428);
#429=VERTEX_POINT('',#1430);
#430=VERTEX_POINT('',#1432);
#431=VERTEX_POINT('',#1434);
#432=VERTEX_POINT('',#1436);
#433=VERTEX_POINT('',#1438);
#434=VERTEX_POINT('',#1440);
#435=VERTEX_POINT('',#1442);
#436=VERTEX_POINT('',#1444);
#437=VERTEX_POINT('',#1446);
#438=VERTEX_POINT('',#1448);
#439=VERTEX_POINT('',#1450);
#440=VERTEX_POINT('',#1452);
#441=VERTEX_POINT('',#1454);
#442=VERTEX_POINT('',#1456);
#443=VERTEX_POINT('',#1458);
#444=VERTEX_POINT('',#1460);
#445=VERTEX_POINT('',#1462);
#446=VERTEX_POINT('',#1464);
#447=VERTEX_POINT('',#1466);
#448=VERTEX_POINT('',#1468);
#449=VERTEX_POINT('',#1470);
#450=VERTEX_POINT('',#1472);
#451=VERTEX_POINT('',#1474);
#452=VERTEX_POINT('',#1476);
#453=VERTEX_POINT('',#1478);
#454=VERTEX_POINT('',#1480);
#455=VERTEX_POINT('',#1482);
#456=VERTEX_POINT('',#1484);
#457=VERTEX_POINT('',#1486);
#458=VERTEX_POINT('',#1489);
#459=VERTEX_POINT('',#1492);
#460=VERTEX_POINT('',#1494);
#461=VERTEX_POINT('',#1498);
#462=VERTEX_POINT('',#1502);
#463=VERTEX_POINT('',#1506);
#464=VERTEX_POINT('',#1510);
#465=VERTEX_POINT('',#1514);
#466=VERTEX_POINT('',#1518);
#467=VERTEX_POINT('',#1522);
#468=VERTEX_POINT('',#1526);
#469=VERTEX_POINT('',#1530);
#470=VERTEX_POINT('',#1534);
#471=VERTEX_POINT('',#1538);
#472=VERTEX_POINT('',#1542);
#473=VERTEX_POINT('',#1546);
#474=VERTEX_POINT('',#1550);
#475=VERTEX_POINT('',#1554);
#476=VERTEX_POINT('',#1558);
#477=VERTEX_POINT('',#1562);
#478=VERTEX_POINT('',#1566);
#479=VERTEX_POINT('',#1570);
#480=VERTEX_POINT('',#1574);
#481=VERTEX_POINT('',#1578);
#482=VERTEX_POINT('',#1582);
#483=VERTEX_POINT('',#1586);
#484=VERTEX_POINT('',#1590);
#485=VERTEX_POINT('',#1594);
#486=VERTEX_POINT('',#1598);
#487=VERTEX_POINT('',#1602);
#488=VERTEX_POINT('',#1606);
#489=VERTEX_POINT('',#1610);
#490=VERTEX_POINT('',#1614);
#491=VERTEX_POINT('',#1618);
#492=VERTEX_POINT('',#1622);
#493=VERTEX_POINT('',#1626);
#494=VERTEX_POINT('',#1630);
#495=VERTEX_POINT('',#1634);
#496=VERTEX_POINT('',#1638);
#497=VERTEX_POINT('',#1642);
#498=VERTEX_POINT('',#1646);
#499=VERTEX_POINT('',#1650);
#500=VERTEX_POINT('',#1654);
#501=VERTEX_POINT('',#1658);
#502=VERTEX_POINT('',#1662);
#503=VERTEX_POINT('',#1666);
#504=VERTEX_POINT('',#1670);
#505=VERTEX_POINT('',#1674);
#506=VERTEX_POINT('',#1678);
#507=VERTEX_POINT('',#1682);
#508=EDGE_CURVE('',#410,#411,#400,.T.);
#509=EDGE_CURVE('',#412,#410,#126,.T.);
#510=EDGE_CURVE('',#413,#412,#127,.T.);
#511=EDGE_CURVE('',#414,#413,#128,.T.);
#512=EDGE_CURVE('',#415,#414,#129,.T.);
#513=EDGE_CURVE('',#416,#415,#130,.T.);
#514=EDGE_CURVE('',#417,#416,#131,.T.);
#515=EDGE_CURVE('',#418,#417,#132,.T.);
#516=EDGE_CURVE('',#419,#418,#133,.T.);
#517=EDGE_CURVE('',#420,#419,#134,.T.);
#518=EDGE_CURVE('',#421,#420,#135,.T.);
#519=EDGE_CURVE('',#422,#421,#136,.T.);
#520=EDGE_CURVE('',#423,#422,#401,.T.);
#521=EDGE_CURVE('',#424,#423,#137,.T.);
#522=EDGE_CURVE('',#425,#424,#138,.T.);
#523=EDGE_CURVE('',#426,#425,#139,.T.);
#524=EDGE_CURVE('',#427,#426,#140,.T.);
#525=EDGE_CURVE('',#428,#427,#141,.T.);
#526=EDGE_CURVE('',#429,#428,#142,.T.);
#527=EDGE_CURVE('',#430,#429,#143,.T.);
#528=EDGE_CURVE('',#431,#430,#144,.T.);
#529=EDGE_CURVE('',#432,#431,#145,.T.);
#530=EDGE_CURVE('',#433,#432,#146,.T.);
#531=EDGE_CURVE('',#434,#433,#147,.T.);
#532=EDGE_CURVE('',#435,#434,#402,.T.);
#533=EDGE_CURVE('',#436,#435,#148,.T.);
#534=EDGE_CURVE('',#437,#436,#149,.T.);
#535=EDGE_CURVE('',#438,#437,#150,.T.);
#536=EDGE_CURVE('',#439,#438,#151,.T.);
#537=EDGE_CURVE('',#440,#439,#152,.T.);
#538=EDGE_CURVE('',#441,#440,#153,.T.);
#539=EDGE_CURVE('',#442,#441,#154,.T.);
#540=EDGE_CURVE('',#443,#442,#155,.T.);
#541=EDGE_CURVE('',#444,#443,#156,.T.);
#542=EDGE_CURVE('',#445,#444,#157,.T.);
#543=EDGE_CURVE('',#446,#445,#158,.T.);
#544=EDGE_CURVE('',#447,#446,#403,.T.);
#545=EDGE_CURVE('',#448,#447,#159,.T.);
#546=EDGE_CURVE('',#449,#448,#160,.T.);
#547=EDGE_CURVE('',#450,#449,#161,.T.);
#548=EDGE_CURVE('',#451,#450,#162,.T.);
#549=EDGE_CURVE('',#452,#451,#163,.T.);
#550=EDGE_CURVE('',#453,#452,#164,.T.);
#551=EDGE_CURVE('',#454,#453,#165,.T.);
#552=EDGE_CURVE('',#455,#454,#166,.T.);
#553=EDGE_CURVE('',#456,#455,#167,.T.);
#554=EDGE_CURVE('',#457,#456,#168,.T.);
#555=EDGE_CURVE('',#411,#457,#169,.T.);
#556=EDGE_CURVE('',#458,#458,#404,.T.);
#557=EDGE_CURVE('',#459,#434,#170,.T.);
#558=EDGE_CURVE('',#459,#460,#405,.T.);
#559=EDGE_CURVE('',#460,#435,#171,.T.);
#560=EDGE_CURVE('',#461,#433,#172,.T.);
#561=EDGE_CURVE('',#461,#459,#173,.T.);
#562=EDGE_CURVE('',#462,#432,#174,.T.);
#563=EDGE_CURVE('',#462,#461,#175,.T.);
#564=EDGE_CURVE('',#463,#431,#176,.T.);
#565=EDGE_CURVE('',#463,#462,#177,.T.);
#566=EDGE_CURVE('',#464,#430,#178,.T.);
#567=EDGE_CURVE('',#464,#463,#179,.T.);
#568=EDGE_CURVE('',#465,#429,#180,.T.);
#569=EDGE_CURVE('',#465,#464,#181,.T.);
#570=EDGE_CURVE('',#466,#428,#182,.T.);
#571=EDGE_CURVE('',#466,#465,#183,.T.);
#572=EDGE_CURVE('',#467,#427,#184,.T.);
#573=EDGE_CURVE('',#467,#466,#185,.T.);
#574=EDGE_CURVE('',#468,#426,#186,.T.);
#575=EDGE_CURVE('',#468,#467,#187,.T.);
#576=EDGE_CURVE('',#469,#425,#188,.T.);
#577=EDGE_CURVE('',#469,#468,#189,.T.);
#578=EDGE_CURVE('',#470,#424,#190,.T.);
#579=EDGE_CURVE('',#470,#469,#191,.T.);
#580=EDGE_CURVE('',#471,#423,#192,.T.);
#581=EDGE_CURVE('',#471,#470,#193,.T.);
#582=EDGE_CURVE('',#472,#422,#194,.T.);
#583=EDGE_CURVE('',#472,#471,#406,.T.);
#584=EDGE_CURVE('',#473,#421,#195,.T.);
#585=EDGE_CURVE('',#473,#472,#196,.T.);
#586=EDGE_CURVE('',#474,#420,#197,.T.);
#587=EDGE_CURVE('',#474,#473,#198,.T.);
#588=EDGE_CURVE('',#475,#419,#199,.T.);
#589=EDGE_CURVE('',#475,#474,#200,.T.);
#590=EDGE_CURVE('',#476,#418,#201,.T.);
#591=EDGE_CURVE('',#476,#475,#202,.T.);
#592=EDGE_CURVE('',#477,#417,#203,.T.);
#593=EDGE_CURVE('',#477,#476,#204,.T.);
#594=EDGE_CURVE('',#478,#416,#205,.T.);
#595=EDGE_CURVE('',#478,#477,#206,.T.);
#596=EDGE_CURVE('',#479,#415,#207,.T.);
#597=EDGE_CURVE('',#479,#478,#208,.T.);
#598=EDGE_CURVE('',#480,#414,#209,.T.);
#599=EDGE_CURVE('',#480,#479,#210,.T.);
#600=EDGE_CURVE('',#481,#413,#211,.T.);
#601=EDGE_CURVE('',#481,#480,#212,.T.);
#602=EDGE_CURVE('',#482,#412,#213,.T.);
#603=EDGE_CURVE('',#482,#481,#214,.T.);
#604=EDGE_CURVE('',#483,#410,#215,.T.);
#605=EDGE_CURVE('',#483,#482,#216,.T.);
#606=EDGE_CURVE('',#458,#484,#217,.T.);
#607=EDGE_CURVE('',#484,#484,#407,.T.);
#608=EDGE_CURVE('',#485,#411,#218,.T.);
#609=EDGE_CURVE('',#485,#483,#408,.T.);
#610=EDGE_CURVE('',#486,#457,#219,.T.);
#611=EDGE_CURVE('',#486,#485,#220,.T.);
#612=EDGE_CURVE('',#487,#456,#221,.T.);
#613=EDGE_CURVE('',#487,#486,#222,.T.);
#614=EDGE_CURVE('',#488,#455,#223,.T.);
#615=EDGE_CURVE('',#488,#487,#224,.T.);
#616=EDGE_CURVE('',#489,#454,#225,.T.);
#617=EDGE_CURVE('',#489,#488,#226,.T.);
#618=EDGE_CURVE('',#490,#453,#227,.T.);
#619=EDGE_CURVE('',#490,#489,#228,.T.);
#620=EDGE_CURVE('',#491,#452,#229,.T.);
#621=EDGE_CURVE('',#491,#490,#230,.T.);
#622=EDGE_CURVE('',#492,#451,#231,.T.);
#623=EDGE_CURVE('',#492,#491,#232,.T.);
#624=EDGE_CURVE('',#493,#450,#233,.T.);
#625=EDGE_CURVE('',#493,#492,#234,.T.);
#626=EDGE_CURVE('',#494,#449,#235,.T.);
#627=EDGE_CURVE('',#494,#493,#236,.T.);
#628=EDGE_CURVE('',#495,#448,#237,.T.);
#629=EDGE_CURVE('',#495,#494,#238,.T.);
#630=EDGE_CURVE('',#496,#447,#239,.T.);
#631=EDGE_CURVE('',#496,#495,#240,.T.);
#632=EDGE_CURVE('',#497,#446,#241,.T.);
#633=EDGE_CURVE('',#497,#496,#409,.T.);
#634=EDGE_CURVE('',#498,#445,#242,.T.);
#635=EDGE_CURVE('',#498,#497,#243,.T.);
#636=EDGE_CURVE('',#499,#444,#244,.T.);
#637=EDGE_CURVE('',#499,#498,#245,.T.);
#638=EDGE_CURVE('',#500,#443,#246,.T.);
#639=EDGE_CURVE('',#500,#499,#247,.T.);
#640=EDGE_CURVE('',#501,#442,#248,.T.);
#641=EDGE_CURVE('',#501,#500,#249,.T.);
#642=EDGE_CURVE('',#502,#441,#250,.T.);
#643=EDGE_CURVE('',#502,#501,#251,.T.);
#644=EDGE_CURVE('',#503,#440,#252,.T.);
#645=EDGE_CURVE('',#503,#502,#253,.T.);
#646=EDGE_CURVE('',#504,#439,#254,.T.);
#647=EDGE_CURVE('',#504,#503,#255,.T.);
#648=EDGE_CURVE('',#505,#438,#256,.T.);
#649=EDGE_CURVE('',#505,#504,#257,.T.);
#650=EDGE_CURVE('',#506,#437,#258,.T.);
#651=EDGE_CURVE('',#506,#505,#259,.T.);
#652=EDGE_CURVE('',#507,#436,#260,.T.);
#653=EDGE_CURVE('',#507,#506,#261,.T.);
#654=EDGE_CURVE('',#460,#507,#262,.T.);
#655=ORIENTED_EDGE('',*,*,#508,.F.);
#656=ORIENTED_EDGE('',*,*,#509,.F.);
#657=ORIENTED_EDGE('',*,*,#510,.F.);
#658=ORIENTED_EDGE('',*,*,#511,.F.);
#659=ORIENTED_EDGE('',*,*,#512,.F.);
#660=ORIENTED_EDGE('',*,*,#513,.F.);
#661=ORIENTED_EDGE('',*,*,#514,.F.);
#662=ORIENTED_EDGE('',*,*,#515,.F.);
#663=ORIENTED_EDGE('',*,*,#516,.F.);
#664=ORIENTED_EDGE('',*,*,#517,.F.);
#665=ORIENTED_EDGE('',*,*,#518,.F.);
#666=ORIENTED_EDGE('',*,*,#519,.F.);
#667=ORIENTED_EDGE('',*,*,#520,.F.);
#668=ORIENTED_EDGE('',*,*,#521,.F.);
#669=ORIENTED_EDGE('',*,*,#522,.F.);
#670=ORIENTED_EDGE('',*,*,#523,.F.);
#671=ORIENTED_EDGE('',*,*,#524,.F.);
#672=ORIENTED_EDGE('',*,*,#525,.F.);
#673=ORIENTED_EDGE('',*,*,#526,.F.);
#674=ORIENTED_EDGE('',*,*,#527,.F.);
#675=ORIENTED_EDGE('',*,*,#528,.F.);
#676=ORIENTED_EDGE('',*,*,#529,.F.);
#677=ORIENTED_EDGE('',*,*,#530,.F.);
#678=ORIENTED_EDGE('',*,*,#531,.F.);
#679=ORIENTED_EDGE('',*,*,#532,.F.);
#680=ORIENTED_EDGE('',*,*,#533,.F.);
#681=ORIENTED_EDGE('',*,*,#534,.F.);
#682=ORIENTED_EDGE('',*,*,#535,.F.);
#683=ORIENTED_EDGE('',*,*,#536,.F.);
#684=ORIENTED_EDGE('',*,*,#537,.F.);
#685=ORIENTED_EDGE('',*,*,#538,.F.);
#686=ORIENTED_EDGE('',*,*,#539,.F.);
#687=ORIENTED_EDGE('',*,*,#540,.F.);
#688=ORIENTED_EDGE('',*,*,#541,.F.);
#689=ORIENTED_EDGE('',*,*,#542,.F.);
#690=ORIENTED_EDGE('',*,*,#543,.F.);
#691=ORIENTED_EDGE('',*,*,#544,.F.);
#692=ORIENTED_EDGE('',*,*,#545,.F.);
#693=ORIENTED_EDGE('',*,*,#546,.F.);
#694=ORIENTED_EDGE('',*,*,#547,.F.);
#695=ORIENTED_EDGE('',*,*,#548,.F.);
#696=ORIENTED_EDGE('',*,*,#549,.F.);
#697=ORIENTED_EDGE('',*,*,#550,.F.);
#698=ORIENTED_EDGE('',*,*,#551,.F.);
#699=ORIENTED_EDGE('',*,*,#552,.F.);
#700=ORIENTED_EDGE('',*,*,#553,.F.);
#701=ORIENTED_EDGE('',*,*,#554,.F.);
#702=ORIENTED_EDGE('',*,*,#555,.F.);
#703=ORIENTED_EDGE('',*,*,#556,.F.);
#704=ORIENTED_EDGE('',*,*,#532,.T.);
#705=ORIENTED_EDGE('',*,*,#557,.F.);
#706=ORIENTED_EDGE('',*,*,#558,.T.);
#707=ORIENTED_EDGE('',*,*,#559,.T.);
#708=ORIENTED_EDGE('',*,*,#531,.T.);
#709=ORIENTED_EDGE('',*,*,#560,.F.);
#710=ORIENTED_EDGE('',*,*,#561,.T.);
#711=ORIENTED_EDGE('',*,*,#557,.T.);
#712=ORIENTED_EDGE('',*,*,#530,.T.);
#713=ORIENTED_EDGE('',*,*,#562,.F.);
#714=ORIENTED_EDGE('',*,*,#563,.T.);
#715=ORIENTED_EDGE('',*,*,#560,.T.);
#716=ORIENTED_EDGE('',*,*,#529,.T.);
#717=ORIENTED_EDGE('',*,*,#564,.F.);
#718=ORIENTED_EDGE('',*,*,#565,.T.);
#719=ORIENTED_EDGE('',*,*,#562,.T.);
#720=ORIENTED_EDGE('',*,*,#528,.T.);
#721=ORIENTED_EDGE('',*,*,#566,.F.);
#722=ORIENTED_EDGE('',*,*,#567,.T.);
#723=ORIENTED_EDGE('',*,*,#564,.T.);
#724=ORIENTED_EDGE('',*,*,#527,.T.);
#725=ORIENTED_EDGE('',*,*,#568,.F.);
#726=ORIENTED_EDGE('',*,*,#569,.T.);
#727=ORIENTED_EDGE('',*,*,#566,.T.);
#728=ORIENTED_EDGE('',*,*,#526,.T.);
#729=ORIENTED_EDGE('',*,*,#570,.F.);
#730=ORIENTED_EDGE('',*,*,#571,.T.);
#731=ORIENTED_EDGE('',*,*,#568,.T.);
#732=ORIENTED_EDGE('',*,*,#525,.T.);
#733=ORIENTED_EDGE('',*,*,#572,.F.);
#734=ORIENTED_EDGE('',*,*,#573,.T.);
#735=ORIENTED_EDGE('',*,*,#570,.T.);
#736=ORIENTED_EDGE('',*,*,#524,.T.);
#737=ORIENTED_EDGE('',*,*,#574,.F.);
#738=ORIENTED_EDGE('',*,*,#575,.T.);
#739=ORIENTED_EDGE('',*,*,#572,.T.);
#740=ORIENTED_EDGE('',*,*,#523,.T.);
#741=ORIENTED_EDGE('',*,*,#576,.F.);
#742=ORIENTED_EDGE('',*,*,#577,.T.);
#743=ORIENTED_EDGE('',*,*,#574,.T.);
#744=ORIENTED_EDGE('',*,*,#522,.T.);
#745=ORIENTED_EDGE('',*,*,#578,.F.);
#746=ORIENTED_EDGE('',*,*,#579,.T.);
#747=ORIENTED_EDGE('',*,*,#576,.T.);
#748=ORIENTED_EDGE('',*,*,#521,.T.);
#749=ORIENTED_EDGE('',*,*,#580,.F.);
#750=ORIENTED_EDGE('',*,*,#581,.T.);
#751=ORIENTED_EDGE('',*,*,#578,.T.);
#752=ORIENTED_EDGE('',*,*,#520,.T.);
#753=ORIENTED_EDGE('',*,*,#582,.F.);
#754=ORIENTED_EDGE('',*,*,#583,.T.);
#755=ORIENTED_EDGE('',*,*,#580,.T.);
#756=ORIENTED_EDGE('',*,*,#519,.T.);
#757=ORIENTED_EDGE('',*,*,#584,.F.);
#758=ORIENTED_EDGE('',*,*,#585,.T.);
#759=ORIENTED_EDGE('',*,*,#582,.T.);
#760=ORIENTED_EDGE('',*,*,#518,.T.);
#761=ORIENTED_EDGE('',*,*,#586,.F.);
#762=ORIENTED_EDGE('',*,*,#587,.T.);
#763=ORIENTED_EDGE('',*,*,#584,.T.);
#764=ORIENTED_EDGE('',*,*,#517,.T.);
#765=ORIENTED_EDGE('',*,*,#588,.F.);
#766=ORIENTED_EDGE('',*,*,#589,.T.);
#767=ORIENTED_EDGE('',*,*,#586,.T.);
#768=ORIENTED_EDGE('',*,*,#516,.T.);
#769=ORIENTED_EDGE('',*,*,#590,.F.);
#770=ORIENTED_EDGE('',*,*,#591,.T.);
#771=ORIENTED_EDGE('',*,*,#588,.T.);
#772=ORIENTED_EDGE('',*,*,#515,.T.);
#773=ORIENTED_EDGE('',*,*,#592,.F.);
#774=ORIENTED_EDGE('',*,*,#593,.T.);
#775=ORIENTED_EDGE('',*,*,#590,.T.);
#776=ORIENTED_EDGE('',*,*,#514,.T.);
#777=ORIENTED_EDGE('',*,*,#594,.F.);
#778=ORIENTED_EDGE('',*,*,#595,.T.);
#779=ORIENTED_EDGE('',*,*,#592,.T.);
#780=ORIENTED_EDGE('',*,*,#513,.T.);
#781=ORIENTED_EDGE('',*,*,#596,.F.);
#782=ORIENTED_EDGE('',*,*,#597,.T.);
#783=ORIENTED_EDGE('',*,*,#594,.T.);
#784=ORIENTED_EDGE('',*,*,#512,.T.);
#785=ORIENTED_EDGE('',*,*,#598,.F.);
#786=ORIENTED_EDGE('',*,*,#599,.T.);
#787=ORIENTED_EDGE('',*,*,#596,.T.);
#788=ORIENTED_EDGE('',*,*,#511,.T.);
#789=ORIENTED_EDGE('',*,*,#600,.F.);
#790=ORIENTED_EDGE('',*,*,#601,.T.);
#791=ORIENTED_EDGE('',*,*,#598,.T.);
#792=ORIENTED_EDGE('',*,*,#510,.T.);
#793=ORIENTED_EDGE('',*,*,#602,.F.);
#794=ORIENTED_EDGE('',*,*,#603,.T.);
#795=ORIENTED_EDGE('',*,*,#600,.T.);
#796=ORIENTED_EDGE('',*,*,#509,.T.);
#797=ORIENTED_EDGE('',*,*,#604,.F.);
#798=ORIENTED_EDGE('',*,*,#605,.T.);
#799=ORIENTED_EDGE('',*,*,#602,.T.);
#800=ORIENTED_EDGE('',*,*,#556,.T.);
#801=ORIENTED_EDGE('',*,*,#606,.T.);
#802=ORIENTED_EDGE('',*,*,#607,.T.);
#803=ORIENTED_EDGE('',*,*,#606,.F.);
#804=ORIENTED_EDGE('',*,*,#508,.T.);
#805=ORIENTED_EDGE('',*,*,#608,.F.);
#806=ORIENTED_EDGE('',*,*,#609,.T.);
#807=ORIENTED_EDGE('',*,*,#604,.T.);
#808=ORIENTED_EDGE('',*,*,#555,.T.);
#809=ORIENTED_EDGE('',*,*,#610,.F.);
#810=ORIENTED_EDGE('',*,*,#611,.T.);
#811=ORIENTED_EDGE('',*,*,#608,.T.);
#812=ORIENTED_EDGE('',*,*,#554,.T.);
#813=ORIENTED_EDGE('',*,*,#612,.F.);
#814=ORIENTED_EDGE('',*,*,#613,.T.);
#815=ORIENTED_EDGE('',*,*,#610,.T.);
#816=ORIENTED_EDGE('',*,*,#553,.T.);
#817=ORIENTED_EDGE('',*,*,#614,.F.);
#818=ORIENTED_EDGE('',*,*,#615,.T.);
#819=ORIENTED_EDGE('',*,*,#612,.T.);
#820=ORIENTED_EDGE('',*,*,#552,.T.);
#821=ORIENTED_EDGE('',*,*,#616,.F.);
#822=ORIENTED_EDGE('',*,*,#617,.T.);
#823=ORIENTED_EDGE('',*,*,#614,.T.);
#824=ORIENTED_EDGE('',*,*,#551,.T.);
#825=ORIENTED_EDGE('',*,*,#618,.F.);
#826=ORIENTED_EDGE('',*,*,#619,.T.);
#827=ORIENTED_EDGE('',*,*,#616,.T.);
#828=ORIENTED_EDGE('',*,*,#550,.T.);
#829=ORIENTED_EDGE('',*,*,#620,.F.);
#830=ORIENTED_EDGE('',*,*,#621,.T.);
#831=ORIENTED_EDGE('',*,*,#618,.T.);
#832=ORIENTED_EDGE('',*,*,#549,.T.);
#833=ORIENTED_EDGE('',*,*,#622,.F.);
#834=ORIENTED_EDGE('',*,*,#623,.T.);
#835=ORIENTED_EDGE('',*,*,#620,.T.);
#836=ORIENTED_EDGE('',*,*,#548,.T.);
#837=ORIENTED_EDGE('',*,*,#624,.F.);
#838=ORIENTED_EDGE('',*,*,#625,.T.);
#839=ORIENTED_EDGE('',*,*,#622,.T.);
#840=ORIENTED_EDGE('',*,*,#547,.T.);
#841=ORIENTED_EDGE('',*,*,#626,.F.);
#842=ORIENTED_EDGE('',*,*,#627,.T.);
#843=ORIENTED_EDGE('',*,*,#624,.T.);
#844=ORIENTED_EDGE('',*,*,#546,.T.);
#845=ORIENTED_EDGE('',*,*,#628,.F.);
#846=ORIENTED_EDGE('',*,*,#629,.T.);
#847=ORIENTED_EDGE('',*,*,#626,.T.);
#848=ORIENTED_EDGE('',*,*,#545,.T.);
#849=ORIENTED_EDGE('',*,*,#630,.F.);
#850=ORIENTED_EDGE('',*,*,#631,.T.);
#851=ORIENTED_EDGE('',*,*,#628,.T.);
#852=ORIENTED_EDGE('',*,*,#544,.T.);
#853=ORIENTED_EDGE('',*,*,#632,.F.);
#854=ORIENTED_EDGE('',*,*,#633,.T.);
#855=ORIENTED_EDGE('',*,*,#630,.T.);
#856=ORIENTED_EDGE('',*,*,#543,.T.);
#857=ORIENTED_EDGE('',*,*,#634,.F.);
#858=ORIENTED_EDGE('',*,*,#635,.T.);
#859=ORIENTED_EDGE('',*,*,#632,.T.);
#860=ORIENTED_EDGE('',*,*,#542,.T.);
#861=ORIENTED_EDGE('',*,*,#636,.F.);
#862=ORIENTED_EDGE('',*,*,#637,.T.);
#863=ORIENTED_EDGE('',*,*,#634,.T.);
#864=ORIENTED_EDGE('',*,*,#541,.T.);
#865=ORIENTED_EDGE('',*,*,#638,.F.);
#866=ORIENTED_EDGE('',*,*,#639,.T.);
#867=ORIENTED_EDGE('',*,*,#636,.T.);
#868=ORIENTED_EDGE('',*,*,#540,.T.);
#869=ORIENTED_EDGE('',*,*,#640,.F.);
#870=ORIENTED_EDGE('',*,*,#641,.T.);
#871=ORIENTED_EDGE('',*,*,#638,.T.);
#872=ORIENTED_EDGE('',*,*,#539,.T.);
#873=ORIENTED_EDGE('',*,*,#642,.F.);
#874=ORIENTED_EDGE('',*,*,#643,.T.);
#875=ORIENTED_EDGE('',*,*,#640,.T.);
#876=ORIENTED_EDGE('',*,*,#538,.T.);
#877=ORIENTED_EDGE('',*,*,#644,.F.);
#878=ORIENTED_EDGE('',*,*,#645,.T.);
#879=ORIENTED_EDGE('',*,*,#642,.T.);
#880=ORIENTED_EDGE('',*,*,#537,.T.);
#881=ORIENTED_EDGE('',*,*,#646,.F.);
#882=ORIENTED_EDGE('',*,*,#647,.T.);
#883=ORIENTED_EDGE('',*,*,#644,.T.);
#884=ORIENTED_EDGE('',*,*,#536,.T.);
#885=ORIENTED_EDGE('',*,*,#648,.F.);
#886=ORIENTED_EDGE('',*,*,#649,.T.);
#887=ORIENTED_EDGE('',*,*,#646,.T.);
#888=ORIENTED_EDGE('',*,*,#535,.T.);
#889=ORIENTED_EDGE('',*,*,#650,.F.);
#890=ORIENTED_EDGE('',*,*,#651,.T.);
#891=ORIENTED_EDGE('',*,*,#648,.T.);
#892=ORIENTED_EDGE('',*,*,#534,.T.);
#893=ORIENTED_EDGE('',*,*,#652,.F.);
#894=ORIENTED_EDGE('',*,*,#653,.T.);
#895=ORIENTED_EDGE('',*,*,#650,.T.);
#896=ORIENTED_EDGE('',*,*,#533,.T.);
#897=ORIENTED_EDGE('',*,*,#559,.F.);
#898=ORIENTED_EDGE('',*,*,#654,.T.);
#899=ORIENTED_EDGE('',*,*,#652,.T.);
#900=ORIENTED_EDGE('',*,*,#605,.F.);
#901=ORIENTED_EDGE('',*,*,#609,.F.);
#902=ORIENTED_EDGE('',*,*,#611,.F.);
#903=ORIENTED_EDGE('',*,*,#613,.F.);
#904=ORIENTED_EDGE('',*,*,#615,.F.);
#905=ORIENTED_EDGE('',*,*,#617,.F.);
#906=ORIENTED_EDGE('',*,*,#619,.F.);
#907=ORIENTED_EDGE('',*,*,#621,.F.);
#908=ORIENTED_EDGE('',*,*,#623,.F.);
#909=ORIENTED_EDGE('',*,*,#625,.F.);
#910=ORIENTED_EDGE('',*,*,#627,.F.);
#911=ORIENTED_EDGE('',*,*,#629,.F.);
#912=ORIENTED_EDGE('',*,*,#631,.F.);
#913=ORIENTED_EDGE('',*,*,#633,.F.);
#914=ORIENTED_EDGE('',*,*,#635,.F.);
#915=ORIENTED_EDGE('',*,*,#637,.F.);
#916=ORIENTED_EDGE('',*,*,#639,.F.);
#917=ORIENTED_EDGE('',*,*,#641,.F.);
#918=ORIENTED_EDGE('',*,*,#643,.F.);
#919=ORIENTED_EDGE('',*,*,#645,.F.);
#920=ORIENTED_EDGE('',*,*,#647,.F.);
#921=ORIENTED_EDGE('',*,*,#649,.F.);
#922=ORIENTED_EDGE('',*,*,#651,.F.);
#923=ORIENTED_EDGE('',*,*,#653,.F.);
#924=ORIENTED_EDGE('',*,*,#654,.F.);
#925=ORIENTED_EDGE('',*,*,#558,.F.);
#926=ORIENTED_EDGE('',*,*,#561,.F.);
#927=ORIENTED_EDGE('',*,*,#563,.F.);
#928=ORIENTED_EDGE('',*,*,#565,.F.);
#929=ORIENTED_EDGE('',*,*,#567,.F.);
#930=ORIENTED_EDGE('',*,*,#569,.F.);
#931=ORIENTED_EDGE('',*,*,#571,.F.);
#932=ORIENTED_EDGE('',*,*,#573,.F.);
#933=ORIENTED_EDGE('',*,*,#575,.F.);
#934=ORIENTED_EDGE('',*,*,#577,.F.);
#935=ORIENTED_EDGE('',*,*,#579,.F.);
#936=ORIENTED_EDGE('',*,*,#581,.F.);
#937=ORIENTED_EDGE('',*,*,#583,.F.);
#938=ORIENTED_EDGE('',*,*,#585,.F.);
#939=ORIENTED_EDGE('',*,*,#587,.F.);
#940=ORIENTED_EDGE('',*,*,#589,.F.);
#941=ORIENTED_EDGE('',*,*,#591,.F.);
#942=ORIENTED_EDGE('',*,*,#593,.F.);
#943=ORIENTED_EDGE('',*,*,#595,.F.);
#944=ORIENTED_EDGE('',*,*,#597,.F.);
#945=ORIENTED_EDGE('',*,*,#599,.F.);
#946=ORIENTED_EDGE('',*,*,#601,.F.);
#947=ORIENTED_EDGE('',*,*,#603,.F.);
#948=ORIENTED_EDGE('',*,*,#607,.F.);
#949=PLANE('',#1069);
#950=PLANE('',#1077);
#951=PLANE('',#1078);
#952=PLANE('',#1079);
#953=PLANE('',#1080);
#954=PLANE('',#1081);
#955=PLANE('',#1082);
#956=PLANE('',#1083);
#957=PLANE('',#1084);
#958=PLANE('',#1085);
#959=PLANE('',#1086);
#960=PLANE('',#1087);
#961=PLANE('',#1090);
#962=PLANE('',#1091);
#963=PLANE('',#1092);
#964=PLANE('',#1093);
#965=PLANE('',#1094);
#966=PLANE('',#1095);
#967=PLANE('',#1096);
#968=PLANE('',#1097);
#969=PLANE('',#1098);
#970=PLANE('',#1099);
#971=PLANE('',#1100);
#972=PLANE('',#1105);
#973=PLANE('',#1106);
#974=PLANE('',#1107);
#975=PLANE('',#1108);
#976=PLANE('',#1109);
#977=PLANE('',#1110);
#978=PLANE('',#1111);
#979=PLANE('',#1112);
#980=PLANE('',#1113);
#981=PLANE('',#1114);
#982=PLANE('',#1115);
#983=PLANE('',#1118);
#984=PLANE('',#1119);
#985=PLANE('',#1120);
#986=PLANE('',#1121);
#987=PLANE('',#1122);
#988=PLANE('',#1123);
#989=PLANE('',#1124);
#990=PLANE('',#1125);
#991=PLANE('',#1126);
#992=PLANE('',#1127);
#993=PLANE('',#1128);
#994=PLANE('',#1129);
#995=ADVANCED_FACE('',(#22,#20),#949,.F.);
#996=ADVANCED_FACE('',(#23),#15,.T.);
#997=ADVANCED_FACE('',(#24),#950,.T.);
#998=ADVANCED_FACE('',(#25),#951,.T.);
#999=ADVANCED_FACE('',(#26),#952,.T.);
#1000=ADVANCED_FACE('',(#27),#953,.T.);
#1001=ADVANCED_FACE('',(#28),#954,.T.);
#1002=ADVANCED_FACE('',(#29),#955,.T.);
#1003=ADVANCED_FACE('',(#30),#956,.T.);
#1004=ADVANCED_FACE('',(#31),#957,.T.);
#1005=ADVANCED_FACE('',(#32),#958,.T.);
#1006=ADVANCED_FACE('',(#33),#959,.T.);
#1007=ADVANCED_FACE('',(#34),#960,.T.);
#1008=ADVANCED_FACE('',(#35),#16,.T.);
#1009=ADVANCED_FACE('',(#36),#961,.T.);
#1010=ADVANCED_FACE('',(#37),#962,.T.);
#1011=ADVANCED_FACE('',(#38),#963,.T.);
#1012=ADVANCED_FACE('',(#39),#964,.T.);
#1013=ADVANCED_FACE('',(#40),#965,.T.);
#1014=ADVANCED_FACE('',(#41),#966,.T.);
#1015=ADVANCED_FACE('',(#42),#967,.T.);
#1016=ADVANCED_FACE('',(#43),#968,.T.);
#1017=ADVANCED_FACE('',(#44),#969,.T.);
#1018=ADVANCED_FACE('',(#45),#970,.T.);
#1019=ADVANCED_FACE('',(#46),#971,.T.);
#1020=ADVANCED_FACE('',(#47),#17,.F.);
#1021=ADVANCED_FACE('',(#48),#18,.T.);
#1022=ADVANCED_FACE('',(#49),#972,.T.);
#1023=ADVANCED_FACE('',(#50),#973,.T.);
#1024=ADVANCED_FACE('',(#51),#974,.T.);
#1025=ADVANCED_FACE('',(#52),#975,.T.);
#1026=ADVANCED_FACE('',(#53),#976,.T.);
#1027=ADVANCED_FACE('',(#54),#977,.T.);
#1028=ADVANCED_FACE('',(#55),#978,.T.);
#1029=ADVANCED_FACE('',(#56),#979,.T.);
#1030=ADVANCED_FACE('',(#57),#980,.T.);
#1031=ADVANCED_FACE('',(#58),#981,.T.);
#1032=ADVANCED_FACE('',(#59),#982,.T.);
#1033=ADVANCED_FACE('',(#60),#19,.T.);
#1034=ADVANCED_FACE('',(#61),#983,.T.);
#1035=ADVANCED_FACE('',(#62),#984,.T.);
#1036=ADVANCED_FACE('',(#63),#985,.T.);
#1037=ADVANCED_FACE('',(#64),#986,.T.);
#1038=ADVANCED_FACE('',(#65),#987,.T.);
#1039=ADVANCED_FACE('',(#66),#988,.T.);
#1040=ADVANCED_FACE('',(#67),#989,.T.);
#1041=ADVANCED_FACE('',(#68),#990,.T.);
#1042=ADVANCED_FACE('',(#69),#991,.T.);
#1043=ADVANCED_FACE('',(#70),#992,.T.);
#1044=ADVANCED_FACE('',(#71),#993,.T.);
#1045=ADVANCED_FACE('',(#72,#21),#994,.F.);
#1046=CLOSED_SHELL('',(#995,#996,#997,#998,#999,#1000,#1001,#1002,#1003,
#1004,#1005,#1006,#1007,#1008,#1009,#1010,#1011,#1012,#1013,#1014,#1015,
#1016,#1017,#1018,#1019,#1020,#1021,#1022,#1023,#1024,#1025,#1026,#1027,
#1028,#1029,#1030,#1031,#1032,#1033,#1034,#1035,#1036,#1037,#1038,#1039,
#1040,#1041,#1042,#1043,#1044,#1045));
#1047=DERIVED_UNIT_ELEMENT(#1050,1.);
#1048=DERIVED_UNIT_ELEMENT(#1693,-3.);
#1049=DIMENSIONAL_EXPONENTS(0.,1.,0.,0.,0.,0.,0.);
#1050=(
CONVERSION_BASED_UNIT('gram',#1052)
MASS_UNIT()
NAMED_UNIT(#1049)
);
#1051=(
MASS_UNIT()
NAMED_UNIT(*)
SI_UNIT(.KILO.,.GRAM.)
);
#1052=MASS_MEASURE_WITH_UNIT(MASS_MEASURE(0.001),#1051);
#1053=DERIVED_UNIT((#1047,#1048));
#1054=MEASURE_REPRESENTATION_ITEM('density measure',
POSITIVE_RATIO_MEASURE(2.7),#1053);
#1055=PROPERTY_DEFINITION_REPRESENTATION(#1060,#1057);
#1056=PROPERTY_DEFINITION_REPRESENTATION(#1061,#1058);
#1057=REPRESENTATION('material name',(#1059),#1690);
#1058=REPRESENTATION('density',(#1054),#1690);
#1059=DESCRIPTIVE_REPRESENTATION_ITEM('Aluminum 6061','Aluminum 6061');
#1060=PROPERTY_DEFINITION('material property','material name',#1700);
#1061=PROPERTY_DEFINITION('material property','density of part',#1700);
#1062=DATE_TIME_ROLE('creation_date');
#1063=APPLIED_DATE_AND_TIME_ASSIGNMENT(#1064,#1062,(#1700));
#1064=DATE_AND_TIME(#1065,#1066);
#1065=CALENDAR_DATE(2025,21,1);
#1066=LOCAL_TIME(20,1,8.,#1067);
#1067=COORDINATED_UNIVERSAL_TIME_OFFSET(0,0,.BEHIND.);
#1068=AXIS2_PLACEMENT_3D('',#1391,#1130,#1131);
#1069=AXIS2_PLACEMENT_3D('',#1392,#1132,#1133);
#1070=AXIS2_PLACEMENT_3D('',#1395,#1134,#1135);
#1071=AXIS2_PLACEMENT_3D('',#1419,#1147,#1148);
#1072=AXIS2_PLACEMENT_3D('',#1443,#1160,#1161);
#1073=AXIS2_PLACEMENT_3D('',#1467,#1173,#1174);
#1074=AXIS2_PLACEMENT_3D('',#1490,#1186,#1187);
#1075=AXIS2_PLACEMENT_3D('',#1491,#1188,#1189);
#1076=AXIS2_PLACEMENT_3D('',#1495,#1191,#1192);
#1077=AXIS2_PLACEMENT_3D('',#1497,#1194,#1195);
#1078=AXIS2_PLACEMENT_3D('',#1501,#1198,#1199);
#1079=AXIS2_PLACEMENT_3D('',#1505,#1202,#1203);
#1080=AXIS2_PLACEMENT_3D('',#1509,#1206,#1207);
#1081=AXIS2_PLACEMENT_3D('',#1513,#1210,#1211);
#1082=AXIS2_PLACEMENT_3D('',#1517,#1214,#1215);
#1083=AXIS2_PLACEMENT_3D('',#1521,#1218,#1219);
#1084=AXIS2_PLACEMENT_3D('',#1525,#1222,#1223);
#1085=AXIS2_PLACEMENT_3D('',#1529,#1226,#1227);
#1086=AXIS2_PLACEMENT_3D('',#1533,#1230,#1231);
#1087=AXIS2_PLACEMENT_3D('',#1537,#1234,#1235);
#1088=AXIS2_PLACEMENT_3D('',#1541,#1238,#1239);
#1089=AXIS2_PLACEMENT_3D('',#1544,#1241,#1242);
#1090=AXIS2_PLACEMENT_3D('',#1545,#1243,#1244);
#1091=AXIS2_PLACEMENT_3D('',#1549,#1247,#1248);
#1092=AXIS2_PLACEMENT_3D('',#1553,#1251,#1252);
#1093=AXIS2_PLACEMENT_3D('',#1557,#1255,#1256);
#1094=AXIS2_PLACEMENT_3D('',#1561,#1259,#1260);
#1095=AXIS2_PLACEMENT_3D('',#1565,#1263,#1264);
#1096=AXIS2_PLACEMENT_3D('',#1569,#1267,#1268);
#1097=AXIS2_PLACEMENT_3D('',#1573,#1271,#1272);
#1098=AXIS2_PLACEMENT_3D('',#1577,#1275,#1276);
#1099=AXIS2_PLACEMENT_3D('',#1581,#1279,#1280);
#1100=AXIS2_PLACEMENT_3D('',#1585,#1283,#1284);
#1101=AXIS2_PLACEMENT_3D('',#1589,#1287,#1288);
#1102=AXIS2_PLACEMENT_3D('',#1592,#1290,#1291);
#1103=AXIS2_PLACEMENT_3D('',#1593,#1292,#1293);
#1104=AXIS2_PLACEMENT_3D('',#1596,#1295,#1296);
#1105=AXIS2_PLACEMENT_3D('',#1597,#1297,#1298);
#1106=AXIS2_PLACEMENT_3D('',#1601,#1301,#1302);
#1107=AXIS2_PLACEMENT_3D('',#1605,#1305,#1306);
#1108=AXIS2_PLACEMENT_3D('',#1609,#1309,#1310);
#1109=AXIS2_PLACEMENT_3D('',#1613,#1313,#1314);
#1110=AXIS2_PLACEMENT_3D('',#1617,#1317,#1318);
#1111=AXIS2_PLACEMENT_3D('',#1621,#1321,#1322);
#1112=AXIS2_PLACEMENT_3D('',#1625,#1325,#1326);
#1113=AXIS2_PLACEMENT_3D('',#1629,#1329,#1330);
#1114=AXIS2_PLACEMENT_3D('',#1633,#1333,#1334);
#1115=AXIS2_PLACEMENT_3D('',#1637,#1337,#1338);
#1116=AXIS2_PLACEMENT_3D('',#1641,#1341,#1342);
#1117=AXIS2_PLACEMENT_3D('',#1644,#1344,#1345);
#1118=AXIS2_PLACEMENT_3D('',#1645,#1346,#1347);
#1119=AXIS2_PLACEMENT_3D('',#1649,#1350,#1351);
#1120=AXIS2_PLACEMENT_3D('',#1653,#1354,#1355);
#1121=AXIS2_PLACEMENT_3D('',#1657,#1358,#1359);
#1122=AXIS2_PLACEMENT_3D('',#1661,#1362,#1363);
#1123=AXIS2_PLACEMENT_3D('',#1665,#1366,#1367);
#1124=AXIS2_PLACEMENT_3D('',#1669,#1370,#1371);
#1125=AXIS2_PLACEMENT_3D('',#1673,#1374,#1375);
#1126=AXIS2_PLACEMENT_3D('',#1677,#1378,#1379);
#1127=AXIS2_PLACEMENT_3D('',#1681,#1382,#1383);
#1128=AXIS2_PLACEMENT_3D('',#1685,#1386,#1387);
#1129=AXIS2_PLACEMENT_3D('',#1687,#1389,#1390);
#1130=DIRECTION('axis',(0.,0.,1.));
#1131=DIRECTION('refdir',(1.,0.,0.));
#1132=DIRECTION('center_axis',(0.,-1.,0.));
#1133=DIRECTION('ref_axis',(0.,0.,-1.));
#1134=DIRECTION('center_axis',(0.,-1.,0.));
#1135=DIRECTION('ref_axis',(0.,0.,-1.));
#1136=DIRECTION('',(0.,0.,-1.));
#1137=DIRECTION('',(-0.707106781186547,0.,-0.707106781186547));
#1138=DIRECTION('',(0.,0.,1.));
#1139=DIRECTION('',(-1.,0.,0.));
#1140=DIRECTION('',(-0.707106781186547,0.,-0.707106781186548));
#1141=DIRECTION('',(0.,0.,-1.));
#1142=DIRECTION('',(0.707106781186547,0.,-0.707106781186548));
#1143=DIRECTION('',(1.,0.,0.));
#1144=DIRECTION('',(0.,0.,1.));
#1145=DIRECTION('',(0.707106781186547,0.,-0.707106781186548));
#1146=DIRECTION('',(0.,0.,-1.));
#1147=DIRECTION('center_axis',(0.,-1.,0.));
#1148=DIRECTION('ref_axis',(-1.,0.,0.));
#1149=DIRECTION('',(-1.,0.,0.));
#1150=DIRECTION('',(-0.707106781186548,0.,0.707106781186547));
#1151=DIRECTION('',(1.,0.,0.));
#1152=DIRECTION('',(0.,0.,1.));
#1153=DIRECTION('',(-0.707106781186548,0.,0.707106781186547));
#1154=DIRECTION('',(-1.,0.,0.));
#1155=DIRECTION('',(-0.707106781186548,0.,-0.707106781186547));
#1156=DIRECTION('',(0.,0.,-1.));
#1157=DIRECTION('',(1.,0.,0.));
#1158=DIRECTION('',(-0.707106781186548,0.,-0.707106781186547));
#1159=DIRECTION('',(-1.,0.,0.));
#1160=DIRECTION('center_axis',(0.,-1.,0.));
#1161=DIRECTION('ref_axis',(0.,0.,1.));
#1162=DIRECTION('',(0.,0.,1.));
#1163=DIRECTION('',(0.707106781186547,0.,0.707106781186548));
#1164=DIRECTION('',(0.,0.,-1.));
#1165=DIRECTION('',(1.,0.,0.));
#1166=DIRECTION('',(0.707106781186547,0.,0.707106781186548));
#1167=DIRECTION('',(0.,0.,1.));
#1168=DIRECTION('',(-0.707106781186547,0.,0.707106781186548));
#1169=DIRECTION('',(-1.,0.,0.));
#1170=DIRECTION('',(0.,0.,-1.));
#1171=DIRECTION('',(-0.707106781186548,0.,0.707106781186548));
#1172=DIRECTION('',(0.,0.,1.));
#1173=DIRECTION('center_axis',(0.,-1.,0.));
#1174=DIRECTION('ref_axis',(1.,0.,0.));
#1175=DIRECTION('',(1.,0.,0.));
#1176=DIRECTION('',(0.707106781186548,0.,-0.707106781186548));
#1177=DIRECTION('',(-1.,0.,0.));
#1178=DIRECTION('',(0.,0.,-1.));
#1179=DIRECTION('',(0.707106781186548,0.,-0.707106781186547));
#1180=DIRECTION('',(1.,0.,0.));
#1181=DIRECTION('',(0.707106781186548,0.,0.707106781186547));
#1182=DIRECTION('',(0.,0.,1.));
#1183=DIRECTION('',(-1.,0.,0.));
#1184=DIRECTION('',(0.707106781186548,0.,0.707106781186547));
#1185=DIRECTION('',(1.,0.,0.));
#1186=DIRECTION('center_axis',(0.,1.,0.));
#1187=DIRECTION('ref_axis',(-1.,0.,0.));
#1188=DIRECTION('center_axis',(0.,1.,0.));
#1189=DIRECTION('ref_axis',(0.,0.,1.));
#1190=DIRECTION('',(0.,1.,0.));
#1191=DIRECTION('center_axis',(0.,1.,0.));
#1192=DIRECTION('ref_axis',(0.,0.,1.));
#1193=DIRECTION('',(0.,1.,0.));
#1194=DIRECTION('center_axis',(0.,0.,1.));
#1195=DIRECTION('ref_axis',(1.,0.,0.));
#1196=DIRECTION('',(0.,1.,0.));
#1197=DIRECTION('',(1.,0.,0.));
#1198=DIRECTION('center_axis',(-0.707106781186547,0.,0.707106781186548));
#1199=DIRECTION('ref_axis',(0.707106781186548,0.,0.707106781186547));
#1200=DIRECTION('',(0.,1.,0.));
#1201=DIRECTION('',(0.707106781186548,0.,0.707106781186547));
#1202=DIRECTION('center_axis',(0.,0.,-1.));
#1203=DIRECTION('ref_axis',(-1.,0.,0.));
#1204=DIRECTION('',(0.,1.,0.));
#1205=DIRECTION('',(-1.,0.,0.));
#1206=DIRECTION('center_axis',(-1.,0.,0.));
#1207=DIRECTION('ref_axis',(0.,0.,1.));
#1208=DIRECTION('',(0.,1.,0.));
#1209=DIRECTION('',(0.,0.,1.));
#1210=DIRECTION('center_axis',(-0.707106781186547,0.,0.707106781186548));
#1211=DIRECTION('ref_axis',(0.707106781186548,0.,0.707106781186547));
#1212=DIRECTION('',(0.,1.,0.));
#1213=DIRECTION('',(0.707106781186548,0.,0.707106781186547));
#1214=DIRECTION('center_axis',(0.,0.,1.));
#1215=DIRECTION('ref_axis',(1.,0.,0.));
#1216=DIRECTION('',(0.,1.,0.));
#1217=DIRECTION('',(1.,0.,0.));
#1218=DIRECTION('center_axis',(0.707106781186547,0.,0.707106781186548));
#1219=DIRECTION('ref_axis',(0.707106781186548,0.,-0.707106781186547));
#1220=DIRECTION('',(0.,1.,0.));
#1221=DIRECTION('',(0.707106781186548,0.,-0.707106781186547));
#1222=DIRECTION('center_axis',(1.,0.,0.));
#1223=DIRECTION('ref_axis',(0.,0.,-1.));
#1224=DIRECTION('',(0.,1.,0.));
#1225=DIRECTION('',(0.,0.,-1.));
#1226=DIRECTION('center_axis',(0.,0.,-1.));
#1227=DIRECTION('ref_axis',(-1.,0.,0.));
#1228=DIRECTION('',(0.,1.,0.));
#1229=DIRECTION('',(-1.,0.,0.));
#1230=DIRECTION('center_axis',(0.707106781186547,0.,0.707106781186548));
#1231=DIRECTION('ref_axis',(0.707106781186548,0.,-0.707106781186547));
#1232=DIRECTION('',(0.,1.,0.));
#1233=DIRECTION('',(0.707106781186548,0.,-0.707106781186547));
#1234=DIRECTION('center_axis',(0.,0.,1.));
#1235=DIRECTION('ref_axis',(1.,0.,0.));
#1236=DIRECTION('',(0.,1.,0.));
#1237=DIRECTION('',(1.,0.,0.));
#1238=DIRECTION('center_axis',(0.,1.,0.));
#1239=DIRECTION('ref_axis',(-1.,0.,0.));
#1240=DIRECTION('',(0.,1.,0.));
#1241=DIRECTION('center_axis',(0.,1.,0.));
#1242=DIRECTION('ref_axis',(-1.,0.,0.));
#1243=DIRECTION('center_axis',(-1.,0.,0.));
#1244=DIRECTION('ref_axis',(0.,0.,1.));
#1245=DIRECTION('',(0.,1.,0.));
#1246=DIRECTION('',(0.,0.,1.));
#1247=DIRECTION('center_axis',(-0.707106781186548,0.,-0.707106781186547));
#1248=DIRECTION('ref_axis',(-0.707106781186547,0.,0.707106781186548));
#1249=DIRECTION('',(0.,1.,0.));
#1250=DIRECTION('',(-0.707106781186547,0.,0.707106781186548));
#1251=DIRECTION('center_axis',(1.,0.,0.));
#1252=DIRECTION('ref_axis',(0.,0.,-1.));
#1253=DIRECTION('',(0.,1.,0.));
#1254=DIRECTION('',(0.,0.,-1.));
#1255=DIRECTION('center_axis',(0.,0.,-1.));
#1256=DIRECTION('ref_axis',(-1.,0.,0.));
#1257=DIRECTION('',(0.,1.,0.));
#1258=DIRECTION('',(-1.,0.,0.));
#1259=DIRECTION('center_axis',(-0.707106781186548,0.,-0.707106781186547));
#1260=DIRECTION('ref_axis',(-0.707106781186547,0.,0.707106781186548));
#1261=DIRECTION('',(0.,1.,0.));
#1262=DIRECTION('',(-0.707106781186547,0.,0.707106781186548));
#1263=DIRECTION('center_axis',(-1.,0.,0.));
#1264=DIRECTION('ref_axis',(0.,0.,1.));
#1265=DIRECTION('',(0.,1.,0.));
#1266=DIRECTION('',(0.,0.,1.));
#1267=DIRECTION('center_axis',(-0.707106781186548,0.,0.707106781186547));
#1268=DIRECTION('ref_axis',(0.707106781186547,0.,0.707106781186548));
#1269=DIRECTION('',(0.,1.,0.));
#1270=DIRECTION('',(0.707106781186547,0.,0.707106781186548));
#1271=DIRECTION('center_axis',(0.,0.,1.));
#1272=DIRECTION('ref_axis',(1.,0.,0.));
#1273=DIRECTION('',(0.,1.,0.));
#1274=DIRECTION('',(1.,0.,0.));
#1275=DIRECTION('center_axis',(1.,0.,0.));
#1276=DIRECTION('ref_axis',(0.,0.,-1.));
#1277=DIRECTION('',(0.,1.,0.));
#1278=DIRECTION('',(0.,0.,-1.));
#1279=DIRECTION('center_axis',(-0.707106781186548,0.,0.707106781186548));
#1280=DIRECTION('ref_axis',(0.707106781186548,0.,0.707106781186548));
#1281=DIRECTION('',(0.,1.,0.));
#1282=DIRECTION('',(0.707106781186548,0.,0.707106781186548));
#1283=DIRECTION('center_axis',(-1.,0.,0.));
#1284=DIRECTION('ref_axis',(0.,0.,1.));
#1285=DIRECTION('',(0.,1.,0.));
#1286=DIRECTION('',(0.,0.,1.));
#1287=DIRECTION('center_axis',(0.,1.,0.));
#1288=DIRECTION('ref_axis',(-1.,0.,0.));
#1289=DIRECTION('',(0.,-1.,0.));
#1290=DIRECTION('center_axis',(0.,-1.,0.));
#1291=DIRECTION('ref_axis',(-1.,0.,0.));
#1292=DIRECTION('center_axis',(0.,1.,0.));
#1293=DIRECTION('ref_axis',(0.,0.,-1.));
#1294=DIRECTION('',(0.,1.,0.));
#1295=DIRECTION('center_axis',(0.,1.,0.));
#1296=DIRECTION('ref_axis',(0.,0.,-1.));
#1297=DIRECTION('center_axis',(0.,0.,-1.));
#1298=DIRECTION('ref_axis',(-1.,0.,0.));
#1299=DIRECTION('',(0.,1.,0.));
#1300=DIRECTION('',(-1.,0.,0.));
#1301=DIRECTION('center_axis',(0.707106781186547,0.,-0.707106781186548));
#1302=DIRECTION('ref_axis',(-0.707106781186548,0.,-0.707106781186547));
#1303=DIRECTION('',(0.,1.,0.));
#1304=DIRECTION('',(-0.707106781186548,0.,-0.707106781186547));
#1305=DIRECTION('center_axis',(0.,0.,1.));
#1306=DIRECTION('ref_axis',(1.,0.,0.));
#1307=DIRECTION('',(0.,1.,0.));
#1308=DIRECTION('',(1.,0.,0.));
#1309=DIRECTION('center_axis',(1.,0.,0.));
#1310=DIRECTION('ref_axis',(0.,0.,-1.));
#1311=DIRECTION('',(0.,1.,0.));
#1312=DIRECTION('',(0.,0.,-1.));
#1313=DIRECTION('center_axis',(0.707106781186547,0.,-0.707106781186548));
#1314=DIRECTION('ref_axis',(-0.707106781186548,0.,-0.707106781186547));
#1315=DIRECTION('',(0.,1.,0.));
#1316=DIRECTION('',(-0.707106781186548,0.,-0.707106781186547));
#1317=DIRECTION('center_axis',(0.,0.,-1.));
#1318=DIRECTION('ref_axis',(-1.,0.,0.));
#1319=DIRECTION('',(0.,1.,0.));
#1320=DIRECTION('',(-1.,0.,0.));
#1321=DIRECTION('center_axis',(-0.707106781186547,0.,-0.707106781186548));
#1322=DIRECTION('ref_axis',(-0.707106781186548,0.,0.707106781186547));
#1323=DIRECTION('',(0.,1.,0.));
#1324=DIRECTION('',(-0.707106781186548,0.,0.707106781186547));
#1325=DIRECTION('center_axis',(-1.,0.,0.));
#1326=DIRECTION('ref_axis',(0.,0.,1.));
#1327=DIRECTION('',(0.,1.,0.));
#1328=DIRECTION('',(0.,0.,1.));
#1329=DIRECTION('center_axis',(0.,0.,1.));
#1330=DIRECTION('ref_axis',(1.,0.,0.));
#1331=DIRECTION('',(0.,1.,0.));
#1332=DIRECTION('',(1.,0.,0.));
#1333=DIRECTION('center_axis',(-0.707106781186548,0.,-0.707106781186548));
#1334=DIRECTION('ref_axis',(-0.707106781186548,0.,0.707106781186548));
#1335=DIRECTION('',(0.,1.,0.));
#1336=DIRECTION('',(-0.707106781186548,0.,0.707106781186548));
#1337=DIRECTION('center_axis',(0.,0.,-1.));
#1338=DIRECTION('ref_axis',(-1.,0.,0.));
#1339=DIRECTION('',(0.,1.,0.));
#1340=DIRECTION('',(-1.,0.,0.));
#1341=DIRECTION('center_axis',(0.,1.,0.));
#1342=DIRECTION('ref_axis',(1.,0.,0.));
#1343=DIRECTION('',(0.,1.,0.));
#1344=DIRECTION('center_axis',(0.,1.,0.));
#1345=DIRECTION('ref_axis',(1.,0.,0.));
#1346=DIRECTION('center_axis',(1.,0.,0.));
#1347=DIRECTION('ref_axis',(0.,0.,-1.));
#1348=DIRECTION('',(0.,1.,0.));
#1349=DIRECTION('',(0.,0.,-1.));
#1350=DIRECTION('center_axis',(0.707106781186548,0.,0.707106781186548));
#1351=DIRECTION('ref_axis',(0.707106781186548,0.,-0.707106781186548));
#1352=DIRECTION('',(0.,1.,0.));
#1353=DIRECTION('',(0.707106781186548,0.,-0.707106781186548));
#1354=DIRECTION('center_axis',(-1.,0.,0.));
#1355=DIRECTION('ref_axis',(0.,0.,1.));
#1356=DIRECTION('',(0.,1.,0.));
#1357=DIRECTION('',(0.,0.,1.));
#1358=DIRECTION('center_axis',(0.,0.,1.));
#1359=DIRECTION('ref_axis',(1.,0.,0.));
#1360=DIRECTION('',(0.,1.,0.));
#1361=DIRECTION('',(1.,0.,0.));
#1362=DIRECTION('center_axis',(0.707106781186548,0.,0.707106781186547));
#1363=DIRECTION('ref_axis',(0.707106781186547,0.,-0.707106781186548));
#1364=DIRECTION('',(0.,1.,0.));
#1365=DIRECTION('',(0.707106781186547,0.,-0.707106781186548));
#1366=DIRECTION('center_axis',(1.,0.,0.));
#1367=DIRECTION('ref_axis',(0.,0.,-1.));
#1368=DIRECTION('',(0.,1.,0.));
#1369=DIRECTION('',(0.,0.,-1.));
#1370=DIRECTION('center_axis',(0.707106781186548,0.,-0.707106781186547));
#1371=DIRECTION('ref_axis',(-0.707106781186547,0.,-0.707106781186548));
#1372=DIRECTION('',(0.,1.,0.));
#1373=DIRECTION('',(-0.707106781186547,0.,-0.707106781186548));
#1374=DIRECTION('center_axis',(0.,0.,-1.));
#1375=DIRECTION('ref_axis',(-1.,0.,0.));
#1376=DIRECTION('',(0.,1.,0.));
#1377=DIRECTION('',(-1.,0.,0.));
#1378=DIRECTION('center_axis',(-1.,0.,0.));
#1379=DIRECTION('ref_axis',(0.,0.,1.));
#1380=DIRECTION('',(0.,1.,0.));
#1381=DIRECTION('',(0.,0.,1.));
#1382=DIRECTION('center_axis',(0.707106781186548,0.,-0.707106781186547));
#1383=DIRECTION('ref_axis',(-0.707106781186547,0.,-0.707106781186548));
#1384=DIRECTION('',(0.,1.,0.));
#1385=DIRECTION('',(-0.707106781186547,0.,-0.707106781186548));
#1386=DIRECTION('center_axis',(1.,0.,0.));
#1387=DIRECTION('ref_axis',(0.,0.,-1.));
#1388=DIRECTION('',(0.,0.,-1.));
#1389=DIRECTION('center_axis',(0.,1.,0.));
#1390=DIRECTION('ref_axis',(0.,0.,1.));
#1391=CARTESIAN_POINT('',(0.,0.,0.));
#1392=CARTESIAN_POINT('Origin',(-0.0251963197124128,395.,0.0438167714153115));
#1393=CARTESIAN_POINT('',(-10.,395.,-9.5));
#1394=CARTESIAN_POINT('',(-9.5,395.,-10.));
#1395=CARTESIAN_POINT('Origin',(-9.5,395.,-9.5));
#1396=CARTESIAN_POINT('',(-10.,395.,-4.5));
#1397=CARTESIAN_POINT('',(-10.,395.,-4.72809161429234));
#1398=CARTESIAN_POINT('',(-8.5,395.,-3.));
#1399=CARTESIAN_POINT('',(-6.37034488707427,395.,-0.870344887074276));
#1400=CARTESIAN_POINT('',(-8.5,395.,-6.2));
#1401=CARTESIAN_POINT('',(-8.5,395.,-1.47809161429234));
#1402=CARTESIAN_POINT('',(-7.04852813742386,395.,-6.2));
#1403=CARTESIAN_POINT('',(-4.26259815985621,395.,-6.2));
#1404=CARTESIAN_POINT('',(-3.6,395.,-2.75147186257614));
#1405=CARTESIAN_POINT('',(-3.73174099014217,395.,-2.88321285271831));
#1406=CARTESIAN_POINT('',(-3.6,395.,2.75147186257614));
#1407=CARTESIAN_POINT('',(-3.6,395.,-1.35382754558041));
#1408=CARTESIAN_POINT('',(-7.04852813742386,395.,6.2));
#1409=CARTESIAN_POINT('',(-2.0293853071379,395.,1.18085716971404));
#1410=CARTESIAN_POINT('',(-8.5,395.,6.2));
#1411=CARTESIAN_POINT('',(-3.53686222856814,395.,6.2));
#1412=CARTESIAN_POINT('',(-8.5,395.,3.));
#1413=CARTESIAN_POINT('',(-8.5,395.,3.12190838570766));
#1414=CARTESIAN_POINT('',(-10.,395.,4.5));
#1415=CARTESIAN_POINT('',(-5.64225327278193,395.,0.142253272781931));
#1416=CARTESIAN_POINT('',(-10.,395.,9.5));
#1417=CARTESIAN_POINT('',(-10.,395.,2.27190838570766));
#1418=CARTESIAN_POINT('',(-9.5,395.,10.));
#1419=CARTESIAN_POINT('Origin',(-9.5,395.,9.5));
#1420=CARTESIAN_POINT('',(-4.5,395.,10.));
#1421=CARTESIAN_POINT('',(-4.76259815985621,395.,10.));
#1422=CARTESIAN_POINT('',(-3.,395.,8.5));
#1423=CARTESIAN_POINT('',(-0.892253272781931,395.,6.39225327278193));
#1424=CARTESIAN_POINT('',(-6.2,395.,8.5));
#1425=CARTESIAN_POINT('',(-1.51259815985621,395.,8.5));
#1426=CARTESIAN_POINT('',(-6.2,395.,7.04852813742386));
#1427=CARTESIAN_POINT('',(-6.2,395.,4.27190838570766));
#1428=CARTESIAN_POINT('',(-2.75147186257614,395.,3.6));
#1429=CARTESIAN_POINT('',(-2.90512123842597,395.,3.75364937584983));
#1430=CARTESIAN_POINT('',(2.75147186257614,395.,3.6));
#1431=CARTESIAN_POINT('',(-1.38833409114428,395.,3.6));
#1432=CARTESIAN_POINT('',(6.2,395.,7.04852813742386));
#1433=CARTESIAN_POINT('',(1.16825900985783,395.,2.01678714728169));
#1434=CARTESIAN_POINT('',(6.2,395.,8.5));
#1435=CARTESIAN_POINT('',(6.2,395.,3.54617245441959));
#1436=CARTESIAN_POINT('',(3.,395.,8.5));
#1437=CARTESIAN_POINT('',(3.08740184014379,395.,8.5));
#1438=CARTESIAN_POINT('',(4.5,395.,10.));
#1439=CARTESIAN_POINT('',(0.129655112925725,395.,5.62965511292573));
#1440=CARTESIAN_POINT('',(9.5,395.,10.));
#1441=CARTESIAN_POINT('',(2.23740184014379,395.,10.));
#1442=CARTESIAN_POINT('',(10.,395.,9.5));
#1443=CARTESIAN_POINT('Origin',(9.5,395.,9.5));
#1444=CARTESIAN_POINT('',(10.,395.,4.5));
#1445=CARTESIAN_POINT('',(10.,395.,4.77190838570766));
#1446=CARTESIAN_POINT('',(8.5,395.,3.));
#1447=CARTESIAN_POINT('',(6.37965511292573,395.,0.879655112925724));
#1448=CARTESIAN_POINT('',(8.5,395.,6.2));
#1449=CARTESIAN_POINT('',(8.5,395.,1.52190838570766));
#1450=CARTESIAN_POINT('',(7.04852813742386,395.,6.2));
#1451=CARTESIAN_POINT('',(4.23740184014379,395.,6.2));
#1452=CARTESIAN_POINT('',(3.6,395.,2.75147186257614));
#1453=CARTESIAN_POINT('',(3.74105121599362,395.,2.89252307856976));
#1454=CARTESIAN_POINT('',(3.6,395.,-2.75147186257614));
#1455=CARTESIAN_POINT('',(3.6,395.,1.39764431699573));
#1456=CARTESIAN_POINT('',(7.04852813742386,395.,-6.2));
#1457=CARTESIAN_POINT('',(1.99487876157403,395.,-1.14635062415017));
#1458=CARTESIAN_POINT('',(8.5,395.,-6.2));
#1459=CARTESIAN_POINT('',(3.51166590885572,395.,-6.2));
#1460=CARTESIAN_POINT('',(8.5,395.,-3.));
#1461=CARTESIAN_POINT('',(8.5,395.,-3.07809161429234));
#1462=CARTESIAN_POINT('',(10.,395.,-4.5));
#1463=CARTESIAN_POINT('',(5.60774672721807,395.,-0.10774672721807));
#1464=CARTESIAN_POINT('',(10.,395.,-9.5));
#1465=CARTESIAN_POINT('',(10.,395.,-2.22809161429234));
#1466=CARTESIAN_POINT('',(9.5,395.,-10.));
#1467=CARTESIAN_POINT('Origin',(9.5,395.,-9.5));
#1468=CARTESIAN_POINT('',(4.5,395.,-10.));
#1469=CARTESIAN_POINT('',(4.73740184014379,395.,-10.));
#1470=CARTESIAN_POINT('',(3.,395.,-8.5));
#1471=CARTESIAN_POINT('',(0.857746727218069,395.,-6.35774672721807));
#1472=CARTESIAN_POINT('',(6.2,395.,-8.5));
#1473=CARTESIAN_POINT('',(1.48740184014379,395.,-8.5));
#1474=CARTESIAN_POINT('',(6.2,395.,-7.04852813742386));
#1475=CARTESIAN_POINT('',(6.2,395.,-4.22809161429235));
#1476=CARTESIAN_POINT('',(2.75147186257614,395.,-3.6));
#1477=CARTESIAN_POINT('',(2.8706146928621,395.,-3.71914283028596));
#1478=CARTESIAN_POINT('',(-2.75147186257614,395.,-3.6));
#1479=CARTESIAN_POINT('',(1.36313777143186,395.,-3.6));
#1480=CARTESIAN_POINT('',(-6.2,395.,-7.04852813742386));
#1481=CARTESIAN_POINT('',(-1.15894878400638,395.,-2.00747692143024));
#1482=CARTESIAN_POINT('',(-6.2,395.,-8.5));
#1483=CARTESIAN_POINT('',(-6.2,395.,-3.50235568300427));
#1484=CARTESIAN_POINT('',(-3.,395.,-8.5));
#1485=CARTESIAN_POINT('',(-3.11259815985621,395.,-8.5));
#1486=CARTESIAN_POINT('',(-4.5,395.,-10.));
#1487=CARTESIAN_POINT('',(-0.120344887074275,395.,-5.62034488707428));
#1488=CARTESIAN_POINT('',(-2.26259815985621,395.,-10.));
#1489=CARTESIAN_POINT('',(2.00000002980232,395.,-2.44929363479202E-16));
#1490=CARTESIAN_POINT('Origin',(0.,395.,0.));
#1491=CARTESIAN_POINT('Origin',(9.5,150.,9.5));
#1492=CARTESIAN_POINT('',(9.5,150.,10.));
#1493=CARTESIAN_POINT('',(9.5,150.,10.));
#1494=CARTESIAN_POINT('',(10.,150.,9.5));
#1495=CARTESIAN_POINT('Origin',(9.5,150.,9.5));
#1496=CARTESIAN_POINT('',(10.,150.,9.5));
#1497=CARTESIAN_POINT('Origin',(4.5,150.,10.));
#1498=CARTESIAN_POINT('',(4.5,150.,10.));
#1499=CARTESIAN_POINT('',(4.5,150.,10.));
#1500=CARTESIAN_POINT('',(4.5,150.,10.));
#1501=CARTESIAN_POINT('Origin',(3.,150.,8.5));
#1502=CARTESIAN_POINT('',(3.,150.,8.5));
#1503=CARTESIAN_POINT('',(3.,150.,8.5));
#1504=CARTESIAN_POINT('',(3.,150.,8.5));
#1505=CARTESIAN_POINT('Origin',(6.2,150.,8.5));
#1506=CARTESIAN_POINT('',(6.2,150.,8.5));
#1507=CARTESIAN_POINT('',(6.2,150.,8.5));
#1508=CARTESIAN_POINT('',(6.2,150.,8.5));
#1509=CARTESIAN_POINT('Origin',(6.2,150.,7.04852813742386));
#1510=CARTESIAN_POINT('',(6.2,150.,7.04852813742386));
#1511=CARTESIAN_POINT('',(6.2,150.,7.04852813742386));
#1512=CARTESIAN_POINT('',(6.2,150.,7.04852813742386));
#1513=CARTESIAN_POINT('Origin',(2.75147186257614,150.,3.6));
#1514=CARTESIAN_POINT('',(2.75147186257614,150.,3.6));
#1515=CARTESIAN_POINT('',(2.75147186257614,150.,3.6));
#1516=CARTESIAN_POINT('',(2.75147186257614,150.,3.6));
#1517=CARTESIAN_POINT('Origin',(-2.75147186257614,150.,3.6));
#1518=CARTESIAN_POINT('',(-2.75147186257614,150.,3.6));
#1519=CARTESIAN_POINT('',(-2.75147186257614,150.,3.6));
#1520=CARTESIAN_POINT('',(-2.75147186257614,150.,3.6));
#1521=CARTESIAN_POINT('Origin',(-6.2,150.,7.04852813742386));
#1522=CARTESIAN_POINT('',(-6.2,150.,7.04852813742386));
#1523=CARTESIAN_POINT('',(-6.2,150.,7.04852813742386));
#1524=CARTESIAN_POINT('',(-6.2,150.,7.04852813742386));
#1525=CARTESIAN_POINT('Origin',(-6.2,150.,8.5));
#1526=CARTESIAN_POINT('',(-6.2,150.,8.5));
#1527=CARTESIAN_POINT('',(-6.2,150.,8.5));
#1528=CARTESIAN_POINT('',(-6.2,150.,8.5));
#1529=CARTESIAN_POINT('Origin',(-3.,150.,8.5));
#1530=CARTESIAN_POINT('',(-3.,150.,8.5));
#1531=CARTESIAN_POINT('',(-3.,150.,8.5));
#1532=CARTESIAN_POINT('',(-3.,150.,8.5));
#1533=CARTESIAN_POINT('Origin',(-4.5,150.,10.));
#1534=CARTESIAN_POINT('',(-4.5,150.,10.));
#1535=CARTESIAN_POINT('',(-4.5,150.,10.));
#1536=CARTESIAN_POINT('',(-4.5,150.,10.));
#1537=CARTESIAN_POINT('Origin',(-9.5,150.,10.));
#1538=CARTESIAN_POINT('',(-9.5,150.,10.));
#1539=CARTESIAN_POINT('',(-9.5,150.,10.));
#1540=CARTESIAN_POINT('',(-9.5,150.,10.));
#1541=CARTESIAN_POINT('Origin',(-9.5,150.,9.5));
#1542=CARTESIAN_POINT('',(-10.,150.,9.5));
#1543=CARTESIAN_POINT('',(-10.,150.,9.5));
#1544=CARTESIAN_POINT('Origin',(-9.5,150.,9.5));
#1545=CARTESIAN_POINT('Origin',(-10.,150.,4.5));
#1546=CARTESIAN_POINT('',(-10.,150.,4.5));
#1547=CARTESIAN_POINT('',(-10.,150.,4.5));
#1548=CARTESIAN_POINT('',(-10.,150.,4.5));
#1549=CARTESIAN_POINT('Origin',(-8.5,150.,3.));
#1550=CARTESIAN_POINT('',(-8.5,150.,3.));
#1551=CARTESIAN_POINT('',(-8.5,150.,3.));
#1552=CARTESIAN_POINT('',(-8.5,150.,3.));
#1553=CARTESIAN_POINT('Origin',(-8.5,150.,6.2));
#1554=CARTESIAN_POINT('',(-8.5,150.,6.2));
#1555=CARTESIAN_POINT('',(-8.5,150.,6.2));
#1556=CARTESIAN_POINT('',(-8.5,150.,6.2));
#1557=CARTESIAN_POINT('Origin',(-7.04852813742386,150.,6.2));
#1558=CARTESIAN_POINT('',(-7.04852813742386,150.,6.2));
#1559=CARTESIAN_POINT('',(-7.04852813742386,150.,6.2));
#1560=CARTESIAN_POINT('',(-7.04852813742386,150.,6.2));
#1561=CARTESIAN_POINT('Origin',(-3.6,150.,2.75147186257614));
#1562=CARTESIAN_POINT('',(-3.6,150.,2.75147186257614));
#1563=CARTESIAN_POINT('',(-3.6,150.,2.75147186257614));
#1564=CARTESIAN_POINT('',(-3.6,150.,2.75147186257614));
#1565=CARTESIAN_POINT('Origin',(-3.6,150.,-2.75147186257614));
#1566=CARTESIAN_POINT('',(-3.6,150.,-2.75147186257614));
#1567=CARTESIAN_POINT('',(-3.6,150.,-2.75147186257614));
#1568=CARTESIAN_POINT('',(-3.6,150.,-2.75147186257614));
#1569=CARTESIAN_POINT('Origin',(-7.04852813742386,150.,-6.2));
#1570=CARTESIAN_POINT('',(-7.04852813742386,150.,-6.2));
#1571=CARTESIAN_POINT('',(-7.04852813742386,150.,-6.2));
#1572=CARTESIAN_POINT('',(-7.04852813742386,150.,-6.2));
#1573=CARTESIAN_POINT('Origin',(-8.5,150.,-6.2));
#1574=CARTESIAN_POINT('',(-8.5,150.,-6.2));
#1575=CARTESIAN_POINT('',(-8.5,150.,-6.2));
#1576=CARTESIAN_POINT('',(-8.5,150.,-6.2));
#1577=CARTESIAN_POINT('Origin',(-8.5,150.,-3.));
#1578=CARTESIAN_POINT('',(-8.5,150.,-3.));
#1579=CARTESIAN_POINT('',(-8.5,150.,-3.));
#1580=CARTESIAN_POINT('',(-8.5,150.,-3.));
#1581=CARTESIAN_POINT('Origin',(-10.,150.,-4.5));
#1582=CARTESIAN_POINT('',(-10.,150.,-4.5));
#1583=CARTESIAN_POINT('',(-10.,150.,-4.5));
#1584=CARTESIAN_POINT('',(-10.,150.,-4.5));
#1585=CARTESIAN_POINT('Origin',(-10.,150.,-9.5));
#1586=CARTESIAN_POINT('',(-10.,150.,-9.5));
#1587=CARTESIAN_POINT('',(-10.,150.,-9.5));
#1588=CARTESIAN_POINT('',(-10.,150.,-9.5));
#1589=CARTESIAN_POINT('Origin',(0.,150.,0.));
#1590=CARTESIAN_POINT('',(2.00000002980232,150.,-2.44929363479202E-16));
#1591=CARTESIAN_POINT('',(2.00000002980232,150.,-2.44929363479202E-16));
#1592=CARTESIAN_POINT('Origin',(0.,150.,0.));
#1593=CARTESIAN_POINT('Origin',(-9.5,150.,-9.5));
#1594=CARTESIAN_POINT('',(-9.5,150.,-10.));
#1595=CARTESIAN_POINT('',(-9.5,150.,-10.));
#1596=CARTESIAN_POINT('Origin',(-9.5,150.,-9.5));
#1597=CARTESIAN_POINT('Origin',(-4.5,150.,-10.));
#1598=CARTESIAN_POINT('',(-4.5,150.,-10.));
#1599=CARTESIAN_POINT('',(-4.5,150.,-10.));
#1600=CARTESIAN_POINT('',(-4.5,150.,-10.));
#1601=CARTESIAN_POINT('Origin',(-3.,150.,-8.5));
#1602=CARTESIAN_POINT('',(-3.,150.,-8.5));
#1603=CARTESIAN_POINT('',(-3.,150.,-8.5));
#1604=CARTESIAN_POINT('',(-3.,150.,-8.5));
#1605=CARTESIAN_POINT('Origin',(-6.2,150.,-8.5));
#1606=CARTESIAN_POINT('',(-6.2,150.,-8.5));
#1607=CARTESIAN_POINT('',(-6.2,150.,-8.5));
#1608=CARTESIAN_POINT('',(-6.2,150.,-8.5));
#1609=CARTESIAN_POINT('Origin',(-6.2,150.,-7.04852813742386));
#1610=CARTESIAN_POINT('',(-6.2,150.,-7.04852813742386));
#1611=CARTESIAN_POINT('',(-6.2,150.,-7.04852813742386));
#1612=CARTESIAN_POINT('',(-6.2,150.,-7.04852813742386));
#1613=CARTESIAN_POINT('Origin',(-2.75147186257614,150.,-3.6));
#1614=CARTESIAN_POINT('',(-2.75147186257614,150.,-3.6));
#1615=CARTESIAN_POINT('',(-2.75147186257614,150.,-3.6));
#1616=CARTESIAN_POINT('',(-2.75147186257614,150.,-3.6));
#1617=CARTESIAN_POINT('Origin',(2.75147186257614,150.,-3.6));
#1618=CARTESIAN_POINT('',(2.75147186257614,150.,-3.6));
#1619=CARTESIAN_POINT('',(2.75147186257614,150.,-3.6));
#1620=CARTESIAN_POINT('',(2.75147186257614,150.,-3.6));
#1621=CARTESIAN_POINT('Origin',(6.2,150.,-7.04852813742386));
#1622=CARTESIAN_POINT('',(6.2,150.,-7.04852813742386));
#1623=CARTESIAN_POINT('',(6.2,150.,-7.04852813742386));
#1624=CARTESIAN_POINT('',(6.2,150.,-7.04852813742386));
#1625=CARTESIAN_POINT('Origin',(6.2,150.,-8.5));
#1626=CARTESIAN_POINT('',(6.2,150.,-8.5));
#1627=CARTESIAN_POINT('',(6.2,150.,-8.5));
#1628=CARTESIAN_POINT('',(6.2,150.,-8.5));
#1629=CARTESIAN_POINT('Origin',(3.,150.,-8.5));
#1630=CARTESIAN_POINT('',(3.,150.,-8.5));
#1631=CARTESIAN_POINT('',(3.,150.,-8.5));
#1632=CARTESIAN_POINT('',(3.,150.,-8.5));
#1633=CARTESIAN_POINT('Origin',(4.5,150.,-10.));
#1634=CARTESIAN_POINT('',(4.5,150.,-10.));
#1635=CARTESIAN_POINT('',(4.5,150.,-10.));
#1636=CARTESIAN_POINT('',(4.5,150.,-10.));
#1637=CARTESIAN_POINT('Origin',(9.5,150.,-10.));
#1638=CARTESIAN_POINT('',(9.5,150.,-10.));
#1639=CARTESIAN_POINT('',(9.5,150.,-10.));
#1640=CARTESIAN_POINT('',(9.5,150.,-10.));
#1641=CARTESIAN_POINT('Origin',(9.5,150.,-9.5));
#1642=CARTESIAN_POINT('',(10.,150.,-9.5));
#1643=CARTESIAN_POINT('',(10.,150.,-9.5));
#1644=CARTESIAN_POINT('Origin',(9.5,150.,-9.5));
#1645=CARTESIAN_POINT('Origin',(10.,150.,-4.5));
#1646=CARTESIAN_POINT('',(10.,150.,-4.5));
#1647=CARTESIAN_POINT('',(10.,150.,-4.5));
#1648=CARTESIAN_POINT('',(10.,150.,-4.5));
#1649=CARTESIAN_POINT('Origin',(8.5,150.,-3.));
#1650=CARTESIAN_POINT('',(8.5,150.,-3.));
#1651=CARTESIAN_POINT('',(8.5,150.,-3.));
#1652=CARTESIAN_POINT('',(8.5,150.,-3.));
#1653=CARTESIAN_POINT('Origin',(8.5,150.,-6.2));
#1654=CARTESIAN_POINT('',(8.5,150.,-6.2));
#1655=CARTESIAN_POINT('',(8.5,150.,-6.2));
#1656=CARTESIAN_POINT('',(8.5,150.,-6.2));
#1657=CARTESIAN_POINT('Origin',(7.04852813742386,150.,-6.2));
#1658=CARTESIAN_POINT('',(7.04852813742386,150.,-6.2));
#1659=CARTESIAN_POINT('',(7.04852813742386,150.,-6.2));
#1660=CARTESIAN_POINT('',(7.04852813742386,150.,-6.2));
#1661=CARTESIAN_POINT('Origin',(3.6,150.,-2.75147186257614));
#1662=CARTESIAN_POINT('',(3.6,150.,-2.75147186257614));
#1663=CARTESIAN_POINT('',(3.6,150.,-2.75147186257614));
#1664=CARTESIAN_POINT('',(3.6,150.,-2.75147186257614));
#1665=CARTESIAN_POINT('Origin',(3.6,150.,2.75147186257614));
#1666=CARTESIAN_POINT('',(3.6,150.,2.75147186257614));
#1667=CARTESIAN_POINT('',(3.6,150.,2.75147186257614));
#1668=CARTESIAN_POINT('',(3.6,150.,2.75147186257614));
#1669=CARTESIAN_POINT('Origin',(7.04852813742386,150.,6.2));
#1670=CARTESIAN_POINT('',(7.04852813742386,150.,6.2));
#1671=CARTESIAN_POINT('',(7.04852813742386,150.,6.2));
#1672=CARTESIAN_POINT('',(7.04852813742386,150.,6.2));
#1673=CARTESIAN_POINT('Origin',(8.5,150.,6.2));
#1674=CARTESIAN_POINT('',(8.5,150.,6.2));
#1675=CARTESIAN_POINT('',(8.5,150.,6.2));
#1676=CARTESIAN_POINT('',(8.5,150.,6.2));
#1677=CARTESIAN_POINT('Origin',(8.5,150.,3.));
#1678=CARTESIAN_POINT('',(8.5,150.,3.));
#1679=CARTESIAN_POINT('',(8.5,150.,3.));
#1680=CARTESIAN_POINT('',(8.5,150.,3.));
#1681=CARTESIAN_POINT('Origin',(10.,150.,4.5));
#1682=CARTESIAN_POINT('',(10.,150.,4.5));
#1683=CARTESIAN_POINT('',(10.,150.,4.5));
#1684=CARTESIAN_POINT('',(10.,150.,4.5));
#1685=CARTESIAN_POINT('Origin',(10.,150.,9.5));
#1686=CARTESIAN_POINT('',(10.,150.,9.5));
#1687=CARTESIAN_POINT('Origin',(-1.11022302462516E-15,150.,1.11022302462516E-15));
#1688=UNCERTAINTY_MEASURE_WITH_UNIT(LENGTH_MEASURE(0.01),#1692,
'DISTANCE_ACCURACY_VALUE',
'Maximum model space distance between geometric entities at asserted c
onnectivities');
#1689=UNCERTAINTY_MEASURE_WITH_UNIT(LENGTH_MEASURE(0.01),#1692,
'DISTANCE_ACCURACY_VALUE',
'Maximum model space distance between geometric entities at asserted c
onnectivities');
#1690=(
GEOMETRIC_REPRESENTATION_CONTEXT(3)
GLOBAL_UNCERTAINTY_ASSIGNED_CONTEXT((#1688))
GLOBAL_UNIT_ASSIGNED_CONTEXT((#1692,#1694,#1695))
REPRESENTATION_CONTEXT('','3D')
);
#1691=(
GEOMETRIC_REPRESENTATION_CONTEXT(3)
GLOBAL_UNCERTAINTY_ASSIGNED_CONTEXT((#1689))
GLOBAL_UNIT_ASSIGNED_CONTEXT((#1692,#1694,#1695))
REPRESENTATION_CONTEXT('','3D')
);
#1692=(
LENGTH_UNIT()
NAMED_UNIT(*)
SI_UNIT(.MILLI.,.METRE.)
);
#1693=(
LENGTH_UNIT()
NAMED_UNIT(*)
SI_UNIT(.CENTI.,.METRE.)
);
#1694=(
NAMED_UNIT(*)
PLANE_ANGLE_UNIT()
SI_UNIT($,.RADIAN.)
);
#1695=(
NAMED_UNIT(*)
SI_UNIT($,.STERADIAN.)
SOLID_ANGLE_UNIT()
);
#1696=SHAPE_DEFINITION_REPRESENTATION(#1697,#1698);
#1697=PRODUCT_DEFINITION_SHAPE('',$,#1700);
#1698=SHAPE_REPRESENTATION('',(#1068),#1690);
#1699=PRODUCT_DEFINITION_CONTEXT('part definition',#1704,'design');
#1700=PRODUCT_DEFINITION('20x20mmx150mm alminum profile',
'20x20x245ExtrudedAluminum',#1701,#1699);
#1701=PRODUCT_DEFINITION_FORMATION('',$,#1706);
#1702=PRODUCT_RELATED_PRODUCT_CATEGORY('20x20x245ExtrudedAluminum',
'20x20x245ExtrudedAluminum',(#1706));
#1703=APPLICATION_PROTOCOL_DEFINITION('international standard',
'automotive_design',2009,#1704);
#1704=APPLICATION_CONTEXT(
'Core Data for Automotive Mechanical Design Process');
#1705=PRODUCT_CONTEXT('part definition',#1704,'mechanical');
#1706=PRODUCT('20x20mmx150mm alminum profile',
'20x20x245ExtrudedAluminum',$,(#1705));
#1707=PRESENTATION_STYLE_ASSIGNMENT((#1708));
#1708=SURFACE_STYLE_USAGE(.BOTH.,#1711);
#1709=SURFACE_STYLE_RENDERING_WITH_PROPERTIES($,#1715,(#1710));
#1710=SURFACE_STYLE_TRANSPARENT(0.);
#1711=SURFACE_SIDE_STYLE('',(#1712,#1709));
#1712=SURFACE_STYLE_FILL_AREA(#1713);
#1713=FILL_AREA_STYLE('',(#1714));
#1714=FILL_AREA_STYLE_COLOUR('',#1715);
#1715=COLOUR_RGB('',0.996078431372549,0.996078431372549,1.);
ENDSEC;
END-ISO-10303-21;
